<?xml version="1.0" encoding="utf-8"?>
<!-- Generator: Adobe Illustrator 27.5.0, SVG Export Plug-In . SVG Version: 6.00 Build 0)  -->
<svg version="1.1" xmlns="http://www.w3.org/2000/svg" xmlns:xlink="http://www.w3.org/1999/xlink" x="0px" y="0px"
	 viewBox="0 0 500 500" style="enable-background:new 0 0 500 500;" xml:space="preserve">
<g id="Shadows_1_">
	<g id="Shadow--inject-214">
		<ellipse id="path--inject-214" style="fill:#F5F5F5;" cx="250" cy="431.267" rx="193.89" ry="11.32"/>
	</g>
</g>
<g id="Background_Simple_1_" style="display:none;">
	<g style="display:inline;">
		<g>
			<path style="fill:#407BFF;" d="M258.058,135.907c-13.848,14.948-20.959,34.714-28.78,53.531
				c-7.82,18.816-17.382,38.07-34.141,49.662c-11.902,8.232-30.301,4.377-43.151,11.033c-20.688,10.715-28.895,19.807-33.888,42.564
				c-5.938,27.065,39.278,96.099,82.797,112.212c26.67,9.875,63.901,4.932,84.589-14.582c20.688-19.514,17.312-57.656,20.79-85.882
				c2.505-20.323,1.181-41.433,8.114-60.701c6.145-17.079,18.406-31.522,23.915-48.817c7.326-23.005,0.838-53.625-18.139-69.674
				C301.524,109.49,273.107,119.663,258.058,135.907z"/>
		</g>
		<g style="opacity:0.9;">
			<path style="fill:#FFFFFF;stroke:#FFFFFF;stroke-miterlimit:10;" d="M258.058,135.907c-13.848,14.948-20.959,34.714-28.78,53.531
				c-7.82,18.816-17.382,38.07-34.141,49.662c-11.902,8.232-30.301,4.377-43.151,11.033c-20.688,10.715-28.895,19.807-33.888,42.564
				c-5.938,27.065,39.278,96.099,82.797,112.212c26.67,9.875,63.901,4.932,84.589-14.582c20.688-19.514,17.312-57.656,20.79-85.882
				c2.505-20.323,1.181-41.433,8.114-60.701c6.145-17.079,18.406-31.522,23.915-48.817c7.326-23.005,0.838-53.625-18.139-69.674
				C301.524,109.49,273.107,119.663,258.058,135.907z"/>
		</g>
	</g>
</g>
<g id="Background_Complete">
	<g>
		<path style="fill:#E6E6E6;" d="M238.395,341.53H45.305c-3.15-0.005-5.7-2.56-5.7-5.71V64.39c0.027-3.13,2.57-5.655,5.7-5.66
			h193.09c3.153,0,5.71,2.556,5.71,5.71l0,0v271.38C244.105,338.974,241.548,341.53,238.395,341.53z M45.305,58.93
			c-3.012,0.006-5.45,2.448-5.45,5.46v271.43c0,3.012,2.438,5.454,5.45,5.46h193.09c3.013-0.005,5.454-2.447,5.46-5.46V64.39
			c-0.006-3.013-2.447-5.455-5.46-5.46H45.305z"/>
		<path style="fill:#E6E6E6;" d="M454.705,341.53h-193.1c-3.151-0.005-5.705-2.559-5.71-5.71V64.39
			c0.033-3.132,2.578-5.655,5.71-5.66h193.1c3.126,0.011,5.663,2.534,5.69,5.66v271.43
			C460.395,338.966,457.851,341.519,454.705,341.53z M261.605,58.93c-3.013,0.006-5.455,2.447-5.46,5.46v271.43
			c0.005,3.013,2.447,5.454,5.46,5.46h193.1c3.013-0.005,5.454-2.447,5.46-5.46V64.39c-0.006-3.013-2.447-5.455-5.46-5.46H261.605z"
			/>
	</g>
	<g>
		<g>
			<g>
				<path style="fill:#F5F5F5;" d="M207.749,197.459l-1.368,117.574c-4.837,39.109-74.172,70.16-74.172,70.16
					s-69.334-31.051-74.171-70.16l-1.451-117.574l74.104-24.392L207.749,197.459z"/>
			</g>
			<path style="fill:#E0E0E0;" d="M198.085,204.901l-1.193,105.541c-4.219,34.109-64.688,61.19-64.688,61.19
				s-60.469-27.081-64.688-61.19L66.25,204.901l64.629-21.273L198.085,204.901z"/>
		</g>
		
			<path style="fill:none;stroke:#FFFFFF;stroke-width:3;stroke-linecap:round;stroke-linejoin:round;stroke-miterlimit:10;stroke-dasharray:0,33;" d="
			M193.837,211.563l-1.119,96.884c-3.955,31.976-60.644,57.364-60.644,57.364s-56.689-25.388-60.644-57.364l-1.187-96.884
			l60.589-19.943L193.837,211.563z"/>
	</g>
	<g>
		<g>
			<rect x="306.943" y="157.788" style="fill:#F5F5F5;" width="133.385" height="234.04"/>
			<rect x="316.796" y="166.986" style="fill:#E0E0E0;" width="113.845" height="224.842"/>
		</g>
		<g>
			<g>
				<path style="fill:#FFFFFF;" d="M319.979,392.83c-0.199,0-0.399-0.04-0.58-0.12c-0.18-0.07-0.34-0.18-0.48-0.32
					c-0.15-0.14-0.26-0.309-0.33-0.49c-0.07-0.18-0.11-0.369-0.11-0.569c0-0.391,0.16-0.78,0.44-1.061c0.34-0.35,0.86-0.5,1.35-0.41
					c0.09,0.021,0.191,0.051,0.28,0.08c0.09,0.04,0.18,0.091,0.26,0.141c0.08,0.059,0.16,0.12,0.23,0.189
					c0.069,0.07,0.13,0.141,0.18,0.23c0.061,0.08,0.1,0.16,0.14,0.26c0.04,0.09,0.07,0.18,0.091,0.28
					c0.02,0.09,0.029,0.189,0.029,0.29c0,0.2-0.04,0.39-0.12,0.569c-0.069,0.181-0.18,0.351-0.319,0.49
					C320.75,392.67,320.38,392.83,319.979,392.83z"/>
			</g>
			<g>
				<path style="fill:#FFFFFF;" d="M318.479,354.49c0-0.83,0.67-1.5,1.5-1.5l0,0c0.83,0,1.5,0.67,1.5,1.5l0,0
					c0,0.829-0.67,1.5-1.5,1.5l0,0C319.149,355.99,318.479,355.319,318.479,354.49z M318.479,317.66c0-0.83,0.67-1.5,1.5-1.5l0,0
					c0.83,0,1.5,0.67,1.5,1.5l0,0c0,0.819-0.67,1.5-1.5,1.5l0,0C319.149,319.16,318.479,318.479,318.479,317.66z M318.479,280.819
					c0-0.829,0.67-1.5,1.5-1.5l0,0c0.83,0,1.5,0.671,1.5,1.5l0,0c0,0.83-0.67,1.5-1.5,1.5l0,0
					C319.149,282.319,318.479,281.649,318.479,280.819z M318.479,243.98c0-0.82,0.67-1.5,1.5-1.5l0,0c0.83,0,1.5,0.68,1.5,1.5l0,0
					c0,0.83-0.67,1.5-1.5,1.5l0,0C319.149,245.48,318.479,244.81,318.479,243.98z M318.479,207.15c0-0.83,0.67-1.5,1.5-1.5l0,0
					c0.83,0,1.5,0.67,1.5,1.5l0,0c0,0.83-0.67,1.5-1.5,1.5l0,0C319.149,208.65,318.479,207.98,318.479,207.15z"/>
			</g>
			<g>
				<path style="fill:#FFFFFF;" d="M319.979,171.81c-0.399,0-0.79-0.16-1.06-0.441c-0.07-0.07-0.14-0.14-0.19-0.23
					c-0.05-0.079-0.1-0.16-0.14-0.25c-0.04-0.1-0.07-0.19-0.08-0.29c-0.02-0.09-0.03-0.19-0.03-0.289c0-0.39,0.16-0.78,0.44-1.06
					c0.06-0.07,0.14-0.13,0.22-0.19c0.08-0.05,0.17-0.1,0.26-0.13c0.091-0.04,0.19-0.07,0.28-0.09c0.2-0.04,0.39-0.04,0.59,0
					c0.09,0.02,0.191,0.05,0.28,0.09c0.09,0.03,0.18,0.08,0.26,0.13c0.08,0.059,0.16,0.12,0.23,0.19
					c0.279,0.28,0.439,0.67,0.439,1.06c0,0.1-0.01,0.2-0.029,0.289c-0.02,0.1-0.051,0.19-0.091,0.29
					c-0.04,0.09-0.079,0.171-0.14,0.25c-0.05,0.09-0.11,0.16-0.18,0.23C320.76,171.65,320.37,171.81,319.979,171.81z"/>
			</g>
			<g>
				<path style="fill:#FFFFFF;" d="M389.88,170.31c0-0.83,0.67-1.5,1.5-1.5l0,0c0.83,0,1.5,0.67,1.5,1.5l0,0
					c0,0.829-0.67,1.5-1.5,1.5l0,0C390.55,171.81,389.88,171.14,389.88,170.31z M354.18,170.31c0-0.83,0.67-1.5,1.5-1.5l0,0
					c0.83,0,1.5,0.67,1.5,1.5l0,0c0,0.829-0.67,1.5-1.5,1.5l0,0C354.85,171.81,354.18,171.14,354.18,170.31z"/>
			</g>
			<g>
				<path style="fill:#FFFFFF;" d="M427.08,171.81c-0.101,0-0.191-0.01-0.29-0.03c-0.1-0.02-0.19-0.05-0.28-0.08
					c-0.09-0.04-0.18-0.09-0.26-0.14c-0.08-0.06-0.16-0.12-0.23-0.191c-0.279-0.28-0.439-0.66-0.439-1.059
					c0-0.39,0.16-0.78,0.439-1.06c0.07-0.07,0.15-0.13,0.23-0.18c0.08-0.06,0.17-0.11,0.26-0.14c0.09-0.04,0.18-0.07,0.28-0.09
					c0.189-0.04,0.39-0.04,0.59,0c0.09,0.02,0.18,0.05,0.28,0.09c0.09,0.03,0.17,0.08,0.25,0.14c0.09,0.05,0.159,0.11,0.229,0.18
					c0.28,0.28,0.441,0.67,0.441,1.06c0,0.4-0.16,0.78-0.441,1.059c-0.07,0.07-0.14,0.13-0.229,0.191c-0.08,0.05-0.16,0.1-0.25,0.14
					c-0.101,0.03-0.19,0.06-0.28,0.08C427.28,171.8,427.18,171.81,427.08,171.81z"/>
			</g>
			<g>
				<path style="fill:#FFFFFF;" d="M425.58,354.49c0-0.83,0.67-1.5,1.5-1.5l0,0c0.83,0,1.5,0.67,1.5,1.5l0,0
					c0,0.829-0.67,1.5-1.5,1.5l0,0C426.25,355.99,425.58,355.319,425.58,354.49z M425.58,317.66c0-0.83,0.67-1.5,1.5-1.5l0,0
					c0.83,0,1.5,0.67,1.5,1.5l0,0c0,0.819-0.67,1.5-1.5,1.5l0,0C426.25,319.16,425.58,318.479,425.58,317.66z M425.58,280.819
					c0-0.829,0.67-1.5,1.5-1.5l0,0c0.83,0,1.5,0.671,1.5,1.5l0,0c0,0.83-0.67,1.5-1.5,1.5l0,0
					C426.25,282.319,425.58,281.649,425.58,280.819z M425.58,243.98c0-0.83,0.67-1.5,1.5-1.5l0,0c0.83,0,1.5,0.67,1.5,1.5l0,0
					c0,0.83-0.67,1.5-1.5,1.5l0,0C426.25,245.48,425.58,244.81,425.58,243.98z M425.58,207.15c0-0.83,0.67-1.5,1.5-1.5l0,0
					c0.83,0,1.5,0.67,1.5,1.5l0,0c0,0.83-0.67,1.5-1.5,1.5l0,0C426.25,208.65,425.58,207.98,425.58,207.15z"/>
			</g>
			<g>
				<path style="fill:#FFFFFF;" d="M427.08,392.83c-0.4,0-0.78-0.16-1.061-0.441c-0.279-0.28-0.439-0.66-0.439-1.059
					c0-0.4,0.16-0.78,0.439-1.061c0.07-0.069,0.15-0.13,0.23-0.189c0.08-0.05,0.17-0.101,0.26-0.141c0.09-0.029,0.18-0.06,0.28-0.08
					c0.189-0.04,0.39-0.04,0.59,0c0.09,0.021,0.189,0.051,0.28,0.08c0.09,0.04,0.17,0.091,0.25,0.141
					c0.09,0.059,0.159,0.12,0.229,0.189c0.28,0.28,0.441,0.66,0.441,1.061c0,0.399-0.15,0.779-0.441,1.059
					C427.859,392.67,427.479,392.83,427.08,392.83z"/>
			</g>
		</g>
	</g>
	<g>
		<rect x="53.79" y="392.21" style="fill:#E0E0E0;" width="41.21" height="0.25"/>
		<rect x="137.67" y="390.21" style="fill:#E0E0E0;" width="41.33" height="0.25"/>
		<rect x="222.78" y="390.21" style="fill:#E0E0E0;" width="10" height="0.25"/>
		<rect x="86.58" y="398.75" style="fill:#E0E0E0;" width="46.25" height="0.25"/>
		<rect x="271.2" y="392.08" style="fill:#E0E0E0;" width="21.6" height="0.25"/>
		<rect x="301.7" y="392.08" style="fill:#E0E0E0;" width="27.93" height="0.25"/>
		<rect x="401.89" y="396.31" style="fill:#E0E0E0;" width="62.44" height="0.25"/>
	</g>
	<g>
		<polygon style="fill:#EBEBEB;" points="233.41,87.652 187.345,87.652 189.857,58.94 235.922,58.94 		"/>
		<polygon style="fill:#FAFAFA;" points="234.344,55.04 233.084,70.034 231.824,88.049 187.517,88.049 190.036,55.04 		"/>
		<polygon style="fill:#E0E0E0;" points="230.106,58.944 232.618,87.654 186.555,87.654 184.044,58.944 187.96,58.944 
			189.324,56.785 201.734,56.785 203.511,58.944 		"/>
	</g>
	<g>
		<g>
			<rect x="255.791" y="94.063" style="fill:#EBEBEB;" width="49.016" height="49.016"/>
			<rect x="304.807" y="94.063" style="fill:#E0E0E0;" width="1.249" height="49.016"/>
			<rect x="260.315" y="98.596" style="fill:#F5F5F5;" width="39.96" height="39.96"/>
			<rect x="260.324" y="98.596" style="fill:#E0E0E0;" width="0.366" height="39.96"/>
		</g>
		<g>
			<g>
				<ellipse style="fill:#E0E0E0;" cx="280.671" cy="114.428" rx="7.791" ry="9.925"/>
				
					<rect x="276.598" y="121.155" transform="matrix(-1 -1.224647e-16 1.224647e-16 -1 561.4077 250.5209)" style="fill:#E0E0E0;" width="8.211" height="8.211"/>
				<path style="fill:#E0E0E0;" d="M265.395,138.556h30.082v-2.796c0-5.324-4.316-9.64-9.64-9.64h-10.803
					c-5.324,0-9.64,4.316-9.64,9.64V138.556z"/>
			</g>
			<path style="fill:#E0E0E0;" d="M264.64,121.878c0,1.636,2.962,2.962,2.962,2.962s2.962-1.326,2.962-2.962
				c0-0.776-1.089-1.214-1.79-1.015c-0.777,0.221-1.172,1.129-1.172,1.129s-0.732-0.97-1.468-1.204
				C265.389,120.551,264.64,121.055,264.64,121.878z"/>
			<path style="fill:#E0E0E0;" d="M291.256,114.591c0,2.148,3.89,3.89,3.89,3.89s3.89-1.742,3.89-3.89
				c0-1.018-1.431-1.594-2.35-1.332c-1.02,0.29-1.54,1.482-1.54,1.482s-0.961-1.273-1.928-1.581
				C292.24,112.849,291.256,113.511,291.256,114.591z"/>
		</g>
	</g>
	<g>
		<path style="fill:#F5F5F5;" d="M205.711,359.323c0.457,2.889,2.549,5.381,2.712,8.301c0.127,2.283-0.946,4.439-1.471,6.664
			c-0.525,2.226-0.276,5,1.683,6.179c1.357,0.818,3.162,0.566,4.511-0.265c1.349-0.831,2.321-2.15,3.156-3.497
			c3.056-4.922,4.75-10.68,4.848-16.472c0.041-2.458-0.248-5.055-1.693-7.043C214.961,347.006,204.572,352.122,205.711,359.323z"/>
		<g>
			<path style="fill:#F5F5F5;" d="M202.042,351.675c0.414,0.477,0.999,0.784,1.61,0.942c0.761,0.196,1.662,0.136,2.208-0.429
				c0.519-0.537,0.576-1.366,0.501-2.109c-0.092-0.911-0.349-1.83-0.907-2.556c-0.558-0.726-1.455-1.231-2.368-1.156
				c-0.913,0.075-1.773,0.824-1.819,1.738C201.217,349.087,201.382,350.915,202.042,351.675z"/>
			<path style="fill:#F5F5F5;" d="M210.312,345.662c-0.501-0.68-1.225-0.999-1.945-0.853c-0.707,0.144-1.358,0.801-1.441,1.543
				c-0.025,0.22-0.037,0.472-0.033,0.729c0.006,0.377,0.037,0.786,0.127,1.167c0.1,0.42,0.274,0.798,0.513,1.034
				c0.339,0.336,0.781,0.547,1.246,0.635c0.579,0.109,1.249,0.021,1.666-0.412c0.437-0.455,0.549-1.125,0.527-1.748
				C210.946,347.016,210.754,346.261,210.312,345.662z"/>
			<path style="fill:#F5F5F5;" d="M214.944,345.408c-0.496-0.706-1.135-0.89-1.751-0.662c-0.59,0.218-1.119,0.857-1.239,1.514
				c-0.039,0.214-0.065,0.442-0.074,0.659c-0.014,0.346-0.008,0.717,0.074,1.065c0.088,0.374,0.269,0.709,0.513,0.91
				c0.299,0.245,0.66,0.386,1.038,0.419c0.471,0.04,0.997-0.082,1.337-0.438c0.404-0.425,0.577-1.014,0.601-1.591
				C215.472,346.632,215.325,345.95,214.944,345.408z"/>
			<path style="fill:#F5F5F5;" d="M219.071,346.371c-0.489-0.733-1.046-0.783-1.557-0.47c-0.473,0.289-0.885,0.913-1.036,1.487
				c-0.055,0.208-0.095,0.413-0.114,0.589c-0.035,0.315-0.052,0.649,0.021,0.964c0.076,0.328,0.259,0.625,0.513,0.785
				c0.254,0.16,0.539,0.226,0.831,0.203c0.362-0.029,0.744-0.184,1.008-0.463c0.372-0.395,0.601-0.904,0.675-1.435
				C219.491,347.463,219.393,346.853,219.071,346.371z"/>
			<path style="fill:#F5F5F5;" d="M219.883,350.417c-0.051,0.239-0.081,0.489-0.027,0.728c0.055,0.239,0.207,0.466,0.434,0.558
				c0.388,0.158,0.814-0.117,1.099-0.423c0.287-0.308,0.525-0.671,0.632-1.078c0.107-0.407,0.071-0.862-0.153-1.218
				C220.958,347.533,220.037,349.703,219.883,350.417z"/>
		</g>
	</g>
	<g>
		<path style="fill:#F5F5F5;" d="M220.692,426.11c0.671-2.365,1.058-4.949,0.172-7.242c-2.757-7.131-14.112-4.854-14.859,2.398
			L220.692,426.11z"/>
		<g>
			<path style="fill:#F5F5F5;" d="M204.422,412.933c0.278,0.567,0.764,1.014,1.314,1.323c0.685,0.385,1.571,0.559,2.244,0.153
				c0.639-0.385,0.908-1.173,1.026-1.91c0.145-0.904,0.132-1.858-0.221-2.703c-0.353-0.845-1.09-1.563-1.992-1.725
				c-0.901-0.162-1.925,0.341-2.205,1.213C204.289,410.22,203.979,412.029,204.422,412.933z"/>
			<path style="fill:#F5F5F5;" d="M213.959,409.245c-0.31-0.786-0.927-1.281-1.661-1.324c-0.72-0.042-1.518,0.425-1.789,1.121
				c-0.08,0.206-0.157,0.447-0.219,0.696c-0.091,0.366-0.166,0.769-0.177,1.16c-0.011,0.431,0.061,0.841,0.23,1.131
				c0.242,0.412,0.614,0.729,1.042,0.933c0.532,0.254,1.202,0.341,1.716,0.029c0.539-0.328,0.82-0.946,0.958-1.555
				C214.223,410.716,214.232,409.938,213.959,409.245z"/>
			<path style="fill:#F5F5F5;" d="M218.5,410.189c-0.299-0.809-0.868-1.151-1.522-1.089c-0.626,0.06-1.301,0.541-1.586,1.146
				c-0.093,0.197-0.177,0.411-0.24,0.618c-0.102,0.331-0.192,0.691-0.202,1.049c-0.011,0.384,0.078,0.755,0.262,1.011
				c0.226,0.314,0.539,0.543,0.896,0.671c0.445,0.16,0.984,0.177,1.404-0.08c0.5-0.307,0.818-0.833,0.989-1.384
				C218.696,411.507,218.73,410.81,218.5,410.189z"/>
			<path style="fill:#F5F5F5;" d="M222.242,412.178c-0.285-0.834-0.809-1.025-1.384-0.854c-0.531,0.158-1.09,0.655-1.383,1.171
				c-0.107,0.187-0.197,0.374-0.262,0.54c-0.115,0.296-0.217,0.613-0.227,0.937c-0.01,0.337,0.09,0.671,0.295,0.891
				c0.204,0.22,0.463,0.356,0.751,0.409c0.357,0.065,0.767,0.013,1.093-0.188c0.461-0.286,0.813-0.72,1.02-1.213
				C222.367,413.342,222.43,412.727,222.242,412.178z"/>
			<path style="fill:#F5F5F5;" d="M221.989,416.297c-0.111,0.218-0.204,0.452-0.213,0.697c-0.008,0.245,0.08,0.503,0.276,0.651
				c0.334,0.252,0.817,0.096,1.171-0.127c0.356-0.224,0.68-0.514,0.888-0.88c0.208-0.366,0.29-0.815,0.165-1.217
				C223.767,413.786,222.32,415.646,221.989,416.297z"/>
		</g>
	</g>
	<g>
		<path style="fill:#F5F5F5;" d="M181.275,383.664c0.361,2.903-0.959,5.876-0.307,8.727c0.51,2.229,2.138,4.003,3.259,5.996
			c1.121,1.993,1.649,4.728,0.094,6.404c-1.078,1.161-2.882,1.419-4.408,0.994c-1.527-0.425-2.825-1.423-4.001-2.486
			c-4.299-3.883-7.522-8.947-9.219-14.485c-0.72-2.35-1.162-4.926-0.323-7.237C168.976,374.39,180.375,376.429,181.275,383.664z"/>
		<g>
			<path style="fill:#F5F5F5;" d="M182.683,375.299c-0.266,0.573-0.743,1.03-1.286,1.351c-0.677,0.4-1.559,0.591-2.24,0.2
				c-0.647-0.372-0.932-1.154-1.066-1.888c-0.164-0.901-0.171-1.855,0.164-2.707c0.336-0.852,1.057-1.585,1.955-1.766
				c0.898-0.181,1.932,0.301,2.23,1.167C182.759,372.584,183.106,374.386,182.683,375.299z"/>
			<path style="fill:#F5F5F5;" d="M173.07,371.811c0.293-0.792,0.9-1.299,1.633-1.358c0.719-0.057,1.526,0.393,1.812,1.083
				c0.085,0.205,0.166,0.443,0.234,0.691c0.098,0.364,0.182,0.766,0.201,1.156c0.02,0.431-0.043,0.842-0.207,1.135
				c-0.233,0.417-0.599,0.742-1.022,0.955c-0.526,0.265-1.194,0.366-1.715,0.065c-0.546-0.316-0.839-0.929-0.99-1.534
				C172.837,373.288,172.812,372.51,173.07,371.811z"/>
			<path style="fill:#F5F5F5;" d="M168.55,372.85c0.282-0.815,0.844-1.169,1.499-1.121c0.627,0.046,1.312,0.514,1.61,1.112
				c0.097,0.195,0.185,0.407,0.253,0.613c0.109,0.329,0.206,0.687,0.224,1.044c0.019,0.384-0.062,0.756-0.241,1.016
				c-0.22,0.319-0.527,0.554-0.882,0.69c-0.441,0.169-0.98,0.197-1.406-0.05c-0.506-0.296-0.835-0.815-1.018-1.363
				C168.381,374.172,168.334,373.476,168.55,372.85z"/>
			<path style="fill:#F5F5F5;" d="M164.851,374.918c0.267-0.84,0.788-1.042,1.366-0.883c0.534,0.147,1.103,0.632,1.407,1.142
				c0.11,0.185,0.205,0.37,0.273,0.534c0.121,0.293,0.23,0.609,0.247,0.932c0.017,0.337-0.076,0.672-0.276,0.897
				c-0.199,0.224-0.456,0.366-0.742,0.425c-0.356,0.073-0.766,0.029-1.097-0.165c-0.467-0.276-0.828-0.703-1.046-1.191
				C164.75,376.084,164.674,375.471,164.851,374.918z"/>
			<path style="fill:#F5F5F5;" d="M165.19,379.03c0.116,0.216,0.214,0.448,0.227,0.692c0.014,0.245-0.07,0.505-0.262,0.656
				c-0.329,0.259-0.815,0.113-1.173-0.102c-0.361-0.217-0.691-0.499-0.906-0.861c-0.215-0.362-0.307-0.808-0.19-1.213
				C163.359,376.557,164.845,378.387,165.19,379.03z"/>
		</g>
	</g>
	<g>
		<g>
			<path style="fill:#E0E0E0;" d="M156.732,143.587c-6.417,0.896-12.367-3.597-13.263-10.014
				c-0.896-6.418,3.597-12.368,10.014-13.264c6.418-0.896,12.368,3.597,13.264,10.015
				C167.643,136.742,163.15,142.692,156.732,143.587z M154.347,126.495c-3.007,0.42-5.112,3.208-4.692,6.215
				c0.42,3.007,3.207,5.112,6.215,4.692c3.007-0.42,5.113-3.208,4.693-6.215C160.143,128.18,157.354,126.075,154.347,126.495z"/>
		</g>
		<g>
			<g>
				
					<rect x="149.861" y="97.092" transform="matrix(0.9904 -0.1382 0.1382 0.9904 -13.9435 22.0926)" style="fill:#E0E0E0;" width="4.461" height="28.69"/>
			</g>
			<g>
				<g>
					
						<rect x="147.936" y="93.818" transform="matrix(0.9904 -0.1382 0.1382 0.9904 -11.8163 21.95)" style="fill:#E0E0E0;" width="8.374" height="4.461"/>
				</g>
				<g>
					
						<rect x="149.233" y="99.46" transform="matrix(0.9904 -0.1382 0.1382 0.9904 -12.5853 22.1471)" style="fill:#E0E0E0;" width="7.874" height="4.461"/>
				</g>
				<g>
					
						<rect x="151.36" y="107.397" transform="matrix(0.9904 -0.1382 0.1382 0.9904 -13.6664 22.4473)" style="fill:#E0E0E0;" width="6.873" height="4.461"/>
				</g>
			</g>
		</g>
	</g>
</g>
<g id="Fingerprint">
	<g>
		<g>
			<g>
				
					<ellipse transform="matrix(0.6915 -0.7224 0.7224 0.6915 -122.9523 162.2142)" style="fill:#407BFF;" cx="128.439" cy="225.056" rx="24.135" ry="26.341"/>
			</g>
			<g style="opacity:0.8;">
				
					<ellipse transform="matrix(0.6915 -0.7224 0.7224 0.6915 -122.9523 162.2142)" style="fill:#FFFFFF;" cx="128.439" cy="225.056" rx="24.135" ry="26.341"/>
			</g>
		</g>
		<g>
			<g>
				<path style="fill:#407BFF;" d="M116.691,209.24c-0.306,0-0.607-0.14-0.804-0.404c-0.329-0.444-0.236-1.07,0.207-1.399
					c3.174-2.356,7.172-3.602,11.562-3.602c0.005,0,0.01,0,0.015,0c0.552,0.001,0.999,0.448,0.999,1.001
					c0,0.552-0.448,0.999-1,0.999c0,0.001-0.009,0-0.014,0c-3.958,0-7.543,1.109-10.37,3.207
					C117.108,209.176,116.899,209.24,116.691,209.24z"/>
			</g>
			<g>
				<path style="fill:#407BFF;" d="M121.421,243.643c-0.159,0-0.32-0.038-0.471-0.119c-6.199-3.319-10.537-9.218-11.9-16.183
					c-1.228-6.27,0.235-12.477,4.013-17.031c0.352-0.423,0.983-0.483,1.408-0.131c0.425,0.352,0.483,0.983,0.131,1.408
					c-3.393,4.089-4.701,9.691-3.589,15.369c1.247,6.374,5.214,11.769,10.881,14.804c0.487,0.26,0.671,0.867,0.41,1.354
					C122.123,243.452,121.778,243.643,121.421,243.643z"/>
			</g>
			<g>
				<path style="fill:#407BFF;" d="M131.43,246.251c-2.157,0-4.372-0.351-6.588-1.065c-0.525-0.169-0.814-0.732-0.646-1.258
					c0.17-0.525,0.735-0.816,1.259-0.645c6.15,1.98,12.294,0.879,16.847-3.027c4.642-3.981,6.8-10.186,5.773-16.598
					c-0.088-0.545,0.284-1.058,0.829-1.146c0.542-0.091,1.058,0.283,1.146,0.829c1.138,7.104-1.272,13.994-6.446,18.432
					C140.163,244.726,135.924,246.251,131.43,246.251z"/>
			</g>
			<g>
				<path style="fill:#407BFF;" d="M148.25,221.118c-0.423,0-0.815-0.27-0.952-0.694c-1.843-5.727-6.171-10.548-11.576-12.896
					c-0.507-0.22-0.739-0.809-0.519-1.316c0.219-0.506,0.806-0.74,1.315-0.518c5.925,2.574,10.667,7.852,12.684,14.118
					c0.169,0.525-0.12,1.089-0.646,1.258C148.454,221.102,148.352,221.118,148.25,221.118z"/>
			</g>
			<g>
				<path style="fill:#407BFF;" d="M132.488,206.401c-0.076,0-0.154-0.009-0.231-0.027c-1.504-0.356-3.048-0.537-4.588-0.539
					c-0.552,0-1-0.449-0.999-1.001c0.001-0.552,0.448-0.999,1-0.999h0.001c1.694,0.001,3.393,0.201,5.047,0.592
					c0.537,0.128,0.87,0.666,0.742,1.204C133.352,206.091,132.941,206.401,132.488,206.401z"/>
			</g>
			<g>
				<path style="fill:#407BFF;" d="M114.851,230.294c-0.407,0-0.79-0.251-0.938-0.655c-1.878-5.106-1.239-10.493,1.753-14.78
					c2.866-4.107,7.431-6.463,12.522-6.463c0.001,0,0.002,0,0.003,0c0.553,0,1,0.448,1,1c0,0.552-0.448,1-1,1l0,0
					c-0.001,0-0.002,0-0.003,0c-4.429,0-8.395,2.044-10.883,5.608c-2.612,3.743-3.164,8.461-1.516,12.945
					c0.19,0.519-0.075,1.093-0.594,1.284C115.082,230.274,114.965,230.294,114.851,230.294z"/>
			</g>
			<g>
				<path style="fill:#407BFF;" d="M130.713,241.71c-0.003,0-0.007,0-0.01,0c-5.806-0.059-11.688-3.384-14.987-8.471
					c-0.301-0.463-0.169-1.083,0.295-1.383c0.463-0.301,1.082-0.168,1.383,0.295c2.944,4.54,8.176,7.506,13.329,7.559
					c0.553,0.006,0.996,0.458,0.99,1.01C131.707,241.27,131.261,241.71,130.713,241.71z"/>
			</g>
			<g>
				<path style="fill:#407BFF;" d="M134.446,241.277c-0.448,0-0.856-0.304-0.97-0.758c-0.133-0.536,0.193-1.079,0.729-1.212
					c8.111-2.02,10.211-9.11,9.545-14.567c-0.869-7.121-6.494-14.334-15.562-14.344c-0.553,0-1-0.449-0.999-1.001
					c0.001-0.552,0.448-0.999,1-0.999h0.001c10.23,0.011,16.569,8.109,17.545,16.102c1.008,8.253-3.329,14.829-11.048,16.751
					C134.608,241.268,134.526,241.277,134.446,241.277z"/>
			</g>
			<g>
				<path style="fill:#407BFF;" d="M124.105,215.919c-0.378,0-0.739-0.215-0.908-0.58c-0.232-0.501-0.014-1.095,0.487-1.328
					c1.492-0.69,3.175-1.056,4.865-1.056c0.553,0,1,0.448,1,1c0,0.552-0.447,1-1,1c-1.402,0-2.794,0.301-4.025,0.871
					C124.388,215.889,124.245,215.919,124.105,215.919z"/>
			</g>
			<g>
				<path style="fill:#407BFF;" d="M130.526,237.052c-5.034,0-9.677-3.069-11.905-7.906c-2.073-4.501-1.466-9.216,1.624-12.611
					c0.372-0.408,1.005-0.438,1.412-0.067c0.408,0.372,0.438,1.004,0.066,1.413c-2.531,2.783-3.012,6.681-1.285,10.429
					c1.947,4.228,6.061,6.874,10.407,6.738c3.533-0.109,6.471-2.04,7.858-5.165c1.573-3.543,0.865-7.729-1.848-10.922
					c-0.358-0.421-0.307-1.052,0.114-1.41c0.422-0.356,1.053-0.307,1.409,0.115c3.216,3.785,4.04,8.777,2.152,13.029
					c-1.707,3.844-5.306,6.219-9.624,6.352C130.78,237.05,130.653,237.052,130.526,237.052z"/>
			</g>
			<g>
				<path style="fill:#407BFF;" d="M134.744,216.798c-0.185,0-0.37-0.051-0.537-0.157c-1.727-1.102-3.684-1.685-5.658-1.686
					c-0.553,0-1-0.448-1-1c0-0.552,0.448-1,1-1l0,0c2.356,0.001,4.685,0.692,6.734,2c0.466,0.297,0.602,0.915,0.305,1.381
					C135.398,216.635,135.074,216.798,134.744,216.798z"/>
			</g>
			<g>
				<path style="fill:#407BFF;" d="M130.028,232.54c-2.308,0-4.539-1.033-6.113-2.904c-1.978-2.352-2.436-5.474-1.191-8.147
					c1.157-2.486,3.499-3.971,6.265-3.973l0,0c0.552,0,1,0.447,1,1c0,0.552-0.447,1-1,1c-1.967,0.001-3.631,1.054-4.451,2.816
					c-0.912,1.96-0.563,4.266,0.909,6.017c1.505,1.789,3.793,2.564,5.977,2.02c1.855-0.461,3.197-1.82,3.588-3.634
					c0.116-0.54,0.642-0.881,1.189-0.767c0.54,0.116,0.883,0.648,0.767,1.188c-0.556,2.578-2.447,4.504-5.061,5.154
					C131.281,232.464,130.652,232.54,130.028,232.54z"/>
			</g>
			<g>
				<path style="fill:#407BFF;" d="M135.817,224.623c-0.426,0-0.82-0.275-0.954-0.702c-0.798-2.549-3.268-4.402-5.876-4.405
					c-0.553,0-1-0.449-0.999-1.001c0.001-0.552,0.448-0.999,1-0.999h0.001c3.458,0.004,6.731,2.447,7.782,5.808
					c0.165,0.527-0.129,1.088-0.655,1.254C136.017,224.607,135.916,224.623,135.817,224.623z"/>
			</g>
			<g>
				<g>
					<path style="fill:#407BFF;" d="M130.267,228.381c-0.539,0-0.984-0.43-0.999-0.973c-0.015-0.552,0.421-1.012,0.973-1.026
						c0.91-0.024,1.046-0.675,1.046-1.062c0-0.59-0.385-1.479-1.444-1.507c-0.289,0.009-0.577,0.131-0.779,0.352
						c-0.204,0.223-0.302,0.525-0.28,0.873c0.033,0.551-0.386,1.025-0.938,1.059c-0.55,0.038-1.024-0.386-1.059-0.938
						c-0.054-0.889,0.23-1.721,0.802-2.344c0.568-0.621,1.369-0.976,2.253-1c2.257,0.059,3.445,1.851,3.445,3.506
						c0,1.755-1.23,3.013-2.991,3.061C130.285,228.381,130.276,228.381,130.267,228.381z"/>
				</g>
			</g>
			<g>
				<g>
					<path style="fill:#407BFF;" d="M156.038,225.053c1.219,13.93-9.084,25.22-23.014,25.22c-0.36,0-0.721-0.01-1.082-0.03
						c13.26-0.68,22.886-11.7,21.706-25.19c-1.179-13.48-12.734-24.5-26.113-25.18c0.358-0.02,0.717-0.03,1.077-0.03
						C142.543,199.843,154.82,211.133,156.038,225.053z"/>
				</g>
				<g style="opacity:0.4;enable-background:new    ;">
					<path style="fill:#FFFFFF;" d="M156.038,225.053c1.219,13.93-9.084,25.22-23.014,25.22c-0.36,0-0.721-0.01-1.082-0.03
						c13.26-0.68,22.886-11.7,21.706-25.19c-1.179-13.48-12.734-24.5-26.113-25.18c0.358-0.02,0.717-0.03,1.077-0.03
						C142.543,199.843,154.82,211.133,156.038,225.053z"/>
				</g>
			</g>
		</g>
	</g>
</g>
<g id="Verification_Code">
	<g>
		<g>
			<path style="fill:#407BFF;" d="M176.415,102.142c0.026,0.3,0.072,0.6,0.128,0.89c0.369,1.93,1.401,3.67,2.815,4.97
				c1.631,1.5,3.783,2.43,6.073,2.43h84.49c4.28,0,7.517-3.24,7.592-7.4c0.005-0.29-0.001-0.59-0.028-0.89
				c-0.2-2.28-1.312-4.36-2.942-5.85c-1.631-1.5-3.783-2.43-6.073-2.43h-84.49C179.401,93.862,176.015,97.572,176.415,102.142z"/>
			<path style="opacity:0.8;fill:#FFFFFF;" d="M176.415,102.142c0.026,0.3,0.072,0.6,0.128,0.89c0.369,1.93,1.401,3.67,2.815,4.97
				c1.631,1.5,3.783,2.43,6.073,2.43h84.49c4.28,0,7.517-3.24,7.592-7.4c0.005-0.29-0.001-0.59-0.028-0.89
				c-0.2-2.28-1.312-4.36-2.942-5.85c-1.631-1.5-3.783-2.43-6.073-2.43h-84.49C179.401,93.862,176.015,97.572,176.415,102.142z"/>
		</g>
		<g>
			<path style="fill:#407BFF;" d="M277.51,103.03c0,0.27-0.02,0.54-0.06,0.8c-0.26-2.16-1.35-4.12-2.91-5.54
				c-1.63-1.5-3.78-2.43-6.07-2.43L178.62,96c1.35-1.33,3.23-2.14,5.36-2.14h84.49c2.29,0,4.44,0.93,6.07,2.43
				c1.63,1.49,2.75,3.57,2.95,5.85C277.51,102.44,277.52,102.74,277.51,103.03z"/>
			<path style="opacity:0.5;fill:#FFFFFF;enable-background:new    ;" d="M277.51,103.03c0,0.27-0.02,0.54-0.06,0.8
				c-0.26-2.16-1.35-4.12-2.91-5.54c-1.63-1.5-3.78-2.43-6.07-2.43L178.62,96c1.35-1.33,3.23-2.14,5.36-2.14h84.49
				c2.29,0,4.44,0.93,6.07,2.43c1.63,1.49,2.75,3.57,2.95,5.85C277.51,102.44,277.52,102.74,277.51,103.03z"/>
		</g>
		<g>
			<g>
				<path style="fill:#407BFF;" d="M262.961,97.857l0.354,4.042l3.763-1.403l0.894,1.995l-3.846,1.276l2.761,3.391l-1.723,1.277
					l-2.692-3.524l-2.039,3.524l-1.893-1.277l2.132-3.391l-4.033-1.276l0.543-1.983l4.043,1.352l-0.35-4.003H262.961z"/>
				<path style="fill:#407BFF;" d="M239.854,97.857l0.354,4.042l3.763-1.403l0.894,1.995l-3.846,1.276l2.761,3.391l-1.723,1.277
					l-2.692-3.524l-2.039,3.524l-1.893-1.277l2.132-3.391l-4.033-1.276l0.543-1.983l4.043,1.352l-0.35-4.003H239.854z"/>
				<path style="fill:#407BFF;" d="M216.747,97.857l0.354,4.042l3.763-1.403l0.894,1.995l-3.846,1.276l2.761,3.391l-1.723,1.277
					l-2.692-3.524l-2.039,3.524l-1.893-1.277l2.132-3.391l-4.033-1.276l0.543-1.983l4.043,1.352l-0.35-4.003H216.747z"/>
				<path style="fill:#407BFF;" d="M193.64,97.857l0.354,4.042l3.763-1.403l0.894,1.995l-3.846,1.276l2.761,3.391l-1.723,1.277
					l-2.692-3.524l-2.039,3.524l-1.893-1.277l2.132-3.391l-4.033-1.276l0.543-1.983l4.043,1.352l-0.35-4.003H193.64z"/>
			</g>
		</g>
		<g>
			<g>
				<rect x="245.707" y="89.942" style="fill:#407BFF;" width="3.937" height="1"/>
			</g>
			<g>
				<rect x="253.729" y="89.942" style="fill:#407BFF;" width="12.854" height="1"/>
			</g>
		</g>
	</g>
</g>
<g id="Face_recognition">
	<g>
		<g>
			<path style="opacity:0.8;fill:#407BFF;" d="M397.791,127.244l-4.092,46.77c-0.123,1.41-0.755,2.69-1.709,3.65
				c-1.101,1.15-2.644,1.87-4.294,1.87h-32.47c-1.2,0-2.277-0.38-3.119-1.04c-1.313-0.99-2.08-2.63-1.918-4.48l4.092-46.77
				c0.267-3.05,2.953-5.52,6.003-5.52h32.47C395.804,121.724,398.058,124.194,397.791,127.244z"/>
			<path style="opacity:0.8;fill:#FFFFFF;" d="M397.791,127.244l-4.092,46.77c-0.123,1.41-0.755,2.69-1.709,3.65
				c-1.101,1.15-2.644,1.87-4.294,1.87h-32.47c-1.2,0-2.277-0.38-3.119-1.04c-1.313-0.99-2.08-2.63-1.918-4.48l4.092-46.77
				c0.267-3.05,2.953-5.52,6.003-5.52h32.47C395.804,121.724,398.058,124.194,397.791,127.244z"/>
		</g>
		<g>
			<g>
				<path style="fill:#407BFF;" d="M357.279,134.776c-0.029,0-0.059-0.001-0.088-0.004c-0.551-0.048-0.957-0.533-0.909-1.083
					l0.374-4.277c0.045-0.517,0.477-0.913,0.996-0.913h4.515c0.553,0,1,0.448,1,1c0,0.552-0.447,1-1,1h-3.599l-0.294,3.364
					C358.228,134.384,357.792,134.776,357.279,134.776z"/>
			</g>
			<g>
				<path style="fill:#407BFF;" d="M393.639,134.776c-0.029,0-0.059-0.001-0.088-0.004c-0.551-0.048-0.957-0.533-0.909-1.083
					l0.279-3.19h-3.424c-0.553,0-1-0.448-1-1c0-0.552,0.447-1,1-1h4.515c0.28,0,0.548,0.118,0.737,0.324
					c0.19,0.207,0.283,0.483,0.259,0.763l-0.374,4.277C394.588,134.384,394.151,134.776,393.639,134.776z"/>
			</g>
			<g>
				<path style="fill:#407BFF;" d="M358.97,167.053h-4.516c-0.28,0-0.548-0.118-0.737-0.325c-0.189-0.206-0.283-0.483-0.259-0.763
					l0.375-4.277c0.049-0.55,0.542-0.963,1.083-0.909c0.551,0.048,0.957,0.533,0.909,1.083l-0.279,3.19h3.424c0.553,0,1,0.448,1,1
					C359.97,166.605,359.522,167.053,358.97,167.053z"/>
			</g>
			<g>
				<path style="fill:#407BFF;" d="M390.814,167.053h-4.515c-0.553,0-1-0.448-1-1c0-0.552,0.447-1,1-1h3.599l0.294-3.364
					c0.049-0.55,0.552-0.963,1.083-0.909c0.551,0.048,0.957,0.533,0.909,1.083l-0.374,4.277
					C391.765,166.656,391.332,167.053,390.814,167.053z"/>
			</g>
		</g>
		<g>
			
				<ellipse transform="matrix(0.2497 -0.9683 0.9683 0.2497 138.132 473.5187)" style="fill:#FFFFFF;" cx="374.61" cy="147.628" rx="16.37" ry="13.158"/>
			<polygon style="fill:#FFFFFF;" points="378.549,172.528 365.599,172.528 366.732,159.577 379.682,159.577 			"/>
			<path style="fill:#FFFFFF;" d="M393.699,174.014c-0.123,1.41-0.755,2.69-1.709,3.65c-1.101,1.15-2.644,1.87-4.294,1.87h-32.47
				c-1.2,0-2.277-0.38-3.119-1.04c-1.313-0.99-2.08-2.63-1.918-4.48c0,0,14.923-4.72,16.763-4.72c1.83,0,11.53,0,11.53,0
				L393.699,174.014z"/>
		</g>
		<g>
			
				<rect x="390.169" y="149.617" transform="matrix(0.082 -0.9966 0.9966 0.082 217.0076 535.8403)" style="fill:#407BFF;" width="18.434" height="0.999"/>
		</g>
		<g>
			
				<rect x="399.239" y="133.837" transform="matrix(0.082 -0.9966 0.9966 0.082 234.2615 523.0129)" style="fill:#407BFF;" width="3.621" height="0.999"/>
		</g>
	</g>
</g>
<g id="Verified">
	<g>
		<g>
			<g>
				<g>
					<rect x="361.94" y="244.07" style="fill:#407BFF;" width="3.938" height="1"/>
				</g>
				<g>
					<rect x="369.963" y="244.07" style="fill:#407BFF;" width="12.854" height="1"/>
				</g>
			</g>
			<g>
				<g>
					<path style="fill:#407BFF;" d="M406.331,226.997l-2.494,28.505c-0.225,2.569-2.49,4.652-5.059,4.652
						c-2.569,0-4.469-2.083-4.245-4.652l2.494-28.505c0.805-9.205-6.028-16.7-15.234-16.7h-10.198c-9.205,0-17.35,7.495-18.156,16.7
						l-1.018,11.64h-9.304l1.018-11.64c1.254-14.338,13.941-26.003,28.273-26.003h10.198
						C396.941,200.994,407.586,212.659,406.331,226.997z"/>
				</g>
				<g style="opacity:0.5;enable-background:new    ;">
					<path style="fill:#FFFFFF;" d="M406.331,226.997l-2.494,28.505c-0.225,2.569-2.49,4.652-5.059,4.652
						c-2.569,0-4.469-2.083-4.245-4.652l2.494-28.505c0.805-9.205-6.028-16.7-15.234-16.7h-10.198c-9.205,0-17.35,7.495-18.156,16.7
						l-1.018,11.64h-9.304l1.018-11.64c1.254-14.338,13.941-26.003,28.273-26.003h10.198
						C396.941,200.994,407.586,212.659,406.331,226.997z"/>
				</g>
				<g>
					<g>
						<path style="fill:#407BFF;" d="M407.004,254.458l-4.859,55.537c-0.307,3.515-3.399,6.358-6.914,6.358h-55.537
							c-3.509,0-6.109-2.843-5.801-6.358l4.859-55.537c0.198-2.269,1.567-4.264,3.453-5.386c1.031-0.615,2.22-0.972,3.46-0.972
							h55.537c1.204,0,2.296,0.336,3.202,0.91C406.153,250.127,407.206,252.148,407.004,254.458z"/>
					</g>
				</g>
			</g>
		</g>
		<path style="fill:#FFFFFF;" d="M349.248,278.717l14.428,22.214l47.592-47.592c0.418-0.418-0.158-1.069-0.624-0.704l-45.355,35.55
			l-8.565-13.81L349.248,278.717z"/>
	</g>
</g>
<g id="Eye_scan">
	<g>
		<g>
			<g>
				<path style="fill:#407BFF;" d="M121.957,171.305H85.815c-3.393,0-6.385-2.751-6.682-6.145l-3.162-36.142
					c-0.297-3.393,2.213-6.144,5.607-6.144h36.142c3.394,0,6.385,2.751,6.682,6.144l3.162,36.142
					C127.861,168.554,125.351,171.305,121.957,171.305z"/>
				<path style="opacity:0.8;fill:#FFFFFF;" d="M121.957,171.305H85.815c-3.393,0-6.385-2.751-6.682-6.145l-3.162-36.142
					c-0.297-3.393,2.213-6.144,5.607-6.144h36.142c3.394,0,6.385,2.751,6.682,6.144l3.162,36.142
					C127.861,168.554,125.351,171.305,121.957,171.305z"/>
			</g>
			<g>
				<path style="fill:#FFFFFF;" d="M79.151,150.73c0,0,12.839-17.889,22.311-17.43c9.472,0.458,25.177,17.008,25.177,17.008
					S103.466,162.474,79.151,150.73z"/>
				<g>
					<g>
						<path style="fill:#263238;" d="M79.558,151.021l-0.813-0.583c0.523-0.73,12.777-17.648,22.356-17.648
							c0.129,0,0.257,0.003,0.385,0.009c9.562,0.463,24.868,16.482,25.515,17.164l-0.725,0.688
							c-0.156-0.164-15.676-16.41-24.839-16.854c-0.112-0.005-0.227-0.008-0.341-0.008C92.03,133.791,79.683,150.847,79.558,151.021
							z"/>
					</g>
					<g>
						<g>
							<g>
								<path style="fill:#263238;" d="M77.816,151.359c-1.937,0-4.452-0.72-5.343-3.461c-0.085-0.263,0.059-0.545,0.321-0.63
									c0.262-0.083,0.545,0.059,0.63,0.321c1.148,3.538,5.443,2.689,5.625,2.651c0.265-0.053,0.535,0.117,0.591,0.388
									c0.057,0.27-0.117,0.535-0.388,0.591C78.851,151.303,78.356,151.359,77.816,151.359z"/>
							</g>
							<g>
								<path style="fill:#263238;" d="M85.445,143.679c-0.106,0-0.214-0.034-0.305-0.103c-0.15-0.116-3.698-2.86-4.604-5.646
									c-0.085-0.262,0.059-0.544,0.321-0.63c0.262-0.085,0.545,0.06,0.63,0.321c0.809,2.488,4.227,5.134,4.262,5.161
									c0.219,0.168,0.26,0.482,0.092,0.701C85.743,143.612,85.595,143.679,85.445,143.679z"/>
							</g>
							<g>
								<path style="fill:#263238;" d="M92.795,136.869c-0.003,0-0.007,0-0.011,0c-0.276-0.006-0.495-0.234-0.489-0.511
									c0.014-0.641-1.576-4.827-2.175-6.403c-0.251-0.66-0.43-1.133-0.468-1.26c-0.08-0.264,0.069-0.543,0.333-0.624
									c0.27-0.08,0.544,0.07,0.624,0.334c0.036,0.12,0.208,0.569,0.445,1.195c1.394,3.669,2.255,6.084,2.24,6.78
									C93.289,136.652,93.066,136.869,92.795,136.869z"/>
							</g>
							<g>
								<path style="fill:#263238;" d="M101.461,133.8c-0.256,0-0.475-0.196-0.497-0.456l-0.704-8.054
									c-0.024-0.275,0.18-0.518,0.454-0.542c0.282-0.035,0.518,0.179,0.542,0.455l0.704,8.054c0.024,0.275-0.18,0.518-0.454,0.542
									C101.49,133.799,101.476,133.8,101.461,133.8z"/>
							</g>
						</g>
						<g>
							<g>
								<path style="fill:#263238;" d="M128.138,150.814c-0.81,0-1.407-0.115-1.46-0.126c-0.271-0.054-0.445-0.317-0.392-0.588
									c0.055-0.271,0.313-0.45,0.588-0.393c0.024,0.004,2.441,0.468,3.942-0.588c0.637-0.449,1.012-1.098,1.145-1.983
									c0.041-0.274,0.299-0.458,0.568-0.42c0.272,0.041,0.461,0.295,0.42,0.569c-0.173,1.156-0.698,2.049-1.561,2.655
									C130.379,150.649,129.106,150.814,128.138,150.814z"/>
							</g>
							<g>
								<path style="fill:#263238;" d="M119.16,143.147c-0.138,0-0.275-0.057-0.374-0.169c-0.184-0.206-0.164-0.522,0.042-0.706
									c0.03-0.026,2.957-2.646,3.326-5.103c0.041-0.274,0.298-0.458,0.568-0.42c0.273,0.041,0.461,0.296,0.42,0.569
									c-0.422,2.817-3.52,5.586-3.651,5.703C119.396,143.105,119.278,143.147,119.16,143.147z"/>
							</g>
							<g>
								<path style="fill:#263238;" d="M110.708,137.337c-0.028,0-0.056-0.002-0.084-0.007c-0.272-0.046-0.456-0.304-0.41-0.577
									c0.011-0.064,1.098-6.494,1.295-7.81c0.041-0.274,0.299-0.459,0.568-0.42c0.273,0.041,0.461,0.296,0.42,0.569
									c-0.198,1.324-1.286,7.763-1.297,7.828C111.159,137.164,110.947,137.337,110.708,137.337z"/>
							</g>
						</g>
					</g>
				</g>
				
					<ellipse transform="matrix(0.6915 -0.7224 0.7224 0.6915 -72.8701 118.6319)" style="fill:#407BFF;" cx="102.453" cy="144.629" rx="10.844" ry="11.835"/>
				<path style="opacity:0.3;" d="M107.136,144.628c0.018-0.25,0.016-0.5-0.007-0.76c-0.233-2.66-2.581-4.81-5.241-4.81
					c-2.65,0-4.622,2.15-4.389,4.81c0.023,0.26,0.065,0.51,0.136,0.76h-6.51c-0.548-6.26,4.079-11.33,10.339-11.33
					c6.25,0,11.774,5.07,12.321,11.33H107.136z"/>
				<path style="opacity:0.7;" d="M107.129,143.868c0.023,0.26,0.025,0.51,0.007,0.76c-0.169,2.3-2.006,4.05-4.406,4.05
					c-2.39,0-4.533-1.75-5.094-4.05c-0.072-0.25-0.114-0.5-0.136-0.76c-0.233-2.66,1.739-4.81,4.389-4.81
					C104.548,139.058,106.896,141.208,107.129,143.868z"/>
				<path style="opacity:0.7;fill:#FFFFFF;" d="M109.743,139.148c0.189,2.166-1.413,3.921-3.578,3.921
					c-2.166,0-4.075-1.756-4.264-3.921c-0.19-2.166,1.412-3.921,3.578-3.921C107.644,135.226,109.553,136.982,109.743,139.148z"/>
			</g>
		</g>
		<g>
			<g>
				<rect x="90.319" y="118.384" style="fill:#407BFF;" width="3.938" height="1"/>
			</g>
			<g>
				<rect x="98.342" y="118.384" style="fill:#407BFF;" width="12.853" height="1"/>
			</g>
		</g>
	</g>
</g>
<g id="Character_1_">
	<path style="fill:#FFB573;" d="M275.976,191.65l0.346,0.411l0.46,0.528c0.33,0.35,0.649,0.72,1.009,1.062
		c0.688,0.722,1.439,1.417,2.198,2.134c1.521,1.4,3.115,2.718,4.775,3.949c1.689,1.252,3.464,2.409,5.249,3.547
		c0.97,0.538,1.818,1.109,2.759,1.626l2.173,1.201c0.315,0.14,0.669,0.161,0.998,0.059c0.697-0.208,4.72-4.189,6-5.663
		c2.836-3.254,7.141-7.528,9.455-11.171l2.64,3.571c-1.636,4.46-3.808,8.704-6.469,12.64c-1.434,2.124-3.148,4.044-5.096,5.709
		c-1.174,0.989-2.5,1.783-3.926,2.352c-1.803,0.722-3.785,0.871-5.675,0.425c-0.491-0.118-0.97-0.277-1.434-0.476l-0.898-0.394
		l-1.619-0.737c-1.093-0.486-2.141-1.058-3.202-1.592c-2.12-1.13-4.177-2.375-6.16-3.731c-2-1.374-3.919-2.862-5.746-4.458
		c-0.953-0.828-1.804-1.67-2.672-2.583c-0.434-0.446-0.867-0.923-1.289-1.409l-0.626-0.758c-0.224-0.284-0.392-0.494-0.707-0.923
		L275.976,191.65z"/>
	<path style="fill:#FFB573;" d="M311.037,189.882l4.643-9.92l4.429,7.936c0,0-2.908,5.011-6.069,5.004L311.037,189.882z"/>
	<polygon style="fill:#FFB573;" points="320.902,175.844 325.585,181.861 320.109,187.888 315.68,179.962 	"/>
	<g>
		<path style="fill:#407BFF;" d="M319.273,190.63h7.366c0.432,0,0.792-0.33,0.83-0.76l1.546-17.669
			c0.043-0.487-0.341-0.906-0.83-0.906h-7.366c-0.432,0-0.792,0.33-0.83,0.76l-1.546,17.669
			C318.401,190.211,318.784,190.63,319.273,190.63z"/>
		<polygon style="opacity:0.3;fill:#FFFFFF;" points="319.347,188.858 326.729,188.858 328.111,173.066 320.729,173.066 		"/>
	</g>
	<path style="fill:#FFB573;" d="M318.872,186.623L318.872,186.623l1.312-0.674c0.664-0.341,1.278-0.771,1.824-1.279l0.242-0.875
		c-0.287-0.478-0.857-0.708-1.395-0.561l-1.089,0.296l-5.404,0.411l-0.135,2.276l1.578,2.447l0.548,0.021
		C317.594,188.734,318.675,187.848,318.872,186.623z"/>
	<path style="fill:#263238;" d="M266.565,181.955c3.747-0.68,30.198,22.256,30.198,22.256l-7.842,11.499
		c0,0-28.924-20.139-28.035-25.005C261.807,185.641,261.096,182.954,266.565,181.955z"/>
	<path style="opacity:0.2;enable-background:new    ;" d="M269.898,189.331l-0.288,12.039c3.007,2.332,13.844,10.642,13.844,10.642
		L269.898,189.331z"/>
	<polygon style="fill:#FFB573;" points="248.93,420.306 257.804,421.183 260.615,400.613 251.741,399.737 	"/>
	<polygon style="fill:#FFB573;" points="161.602,299.606 159.327,308.246 178.522,316.519 182.497,307.753 	"/>
	<g>
		<path style="fill:#407BFF;" d="M264.149,422.964c0.763,0.092,1.535-0.079,2.188-0.483c0.294-0.252,0.446-0.633,0.406-1.018
			c-0.005-0.238-0.133-0.456-0.339-0.575c-1.076-0.639-4.699,1.078-5.104,1.272c-0.079,0.042-0.127,0.126-0.122,0.216
			c0.013,0.088,0.08,0.158,0.167,0.175C262.266,422.773,263.204,422.912,264.149,422.964z M265.763,421.17
			c0.137-0.007,0.272,0.024,0.393,0.088c0.085,0.047,0.139,0.136,0.14,0.233c0.024,0.254-0.074,0.504-0.265,0.674
			c-0.553,0.468-2.028,0.505-3.999,0.121c1.18-0.586,2.452-0.965,3.76-1.122L265.763,421.17z"/>
		<path style="fill:#407BFF;" d="M261.392,422.569l0.078-0.019c1.084-0.445,3.247-2.314,3.107-3.33
			c-0.058-0.233-0.186-0.541-0.773-0.621c-0.422-0.075-0.856,0.033-1.194,0.297c-1.148,0.894-1.424,3.302-1.441,3.399
			c-0.017,0.072,0.002,0.148,0.051,0.204C261.263,422.547,261.327,422.573,261.392,422.569z M263.597,419.01l0.126-0.032
			c0.386,0.059,0.402,0.209,0.405,0.26c0.092,0.616-1.387,2.087-2.495,2.683c0.106-1.015,0.532-1.969,1.217-2.725
			c0.223-0.157,0.496-0.225,0.767-0.191L263.597,419.01z"/>
	</g>
	<path style="fill:#263238;" d="M257.364,417.604l-8.037,0.333c-0.36,0.004-0.658,0.28-0.69,0.638l-1.918,11.16
		c-0.045,0.8,0.567,1.484,1.366,1.529c0.055,0.003,0.111,0.003,0.166,0c3.488-0.181,5.168-0.44,9.589-0.59
		c2.709-0.091,11.043,0.89,14.699,0.048c3.656-0.842,3.01-4.508,1.413-4.485c-5.142,0.099-11.071-3.249-14.046-7.167
		C259.465,418.735,257.918,417.57,257.364,417.604z"/>
	<path style="fill:#263238;" d="M163.406,309.384l4.079-6.933c0.192-0.304,0.122-0.704-0.162-0.925l-8.336-7.665
		c-0.647-0.471-1.554-0.329-2.026,0.318c-0.033,0.045-0.063,0.091-0.09,0.14c-1.74,3.028-2.434,4.58-4.706,8.375
		c-1.392,2.325-6.738,8.794-8.014,12.323c-1.276,3.529,2.154,4.974,3.002,3.62c2.706-4.374,8.735-7.539,13.64-7.913
		C161.316,310.535,163.134,309.867,163.406,309.384z"/>
	<polygon style="opacity:0.2;" points="260.615,400.613 259.165,411.216 250.291,410.349 251.73,399.746 	"/>
	<polygon style="opacity:0.2;" points="188.395,309.887 184.296,319.14 171.943,313.684 175.094,304.866 	"/>
	<path style="fill:#263238;" d="M272.226,192.553c5.072,8.615-1.127,15.892-6.301,41.651l-33.426,0.089
		c0.542-13.882,0.485-25.105-5.441-52.413c-0.549-2.486,1.021-4.947,3.507-5.496c0.323-0.071,0.652-0.108,0.982-0.109
		c2.765,0.003,6.235,0.099,9.76,0.458c5.568,0.452,11.098,1.288,16.551,2.503c4.642,1.116,5.769,1.733,8.706,2.719
		C268.278,182.541,270.35,187.218,272.226,192.553z"/>
	<path style="fill:#407BFF;" d="M267.161,235.943c0,0,18.768,54.27,18.314,80.365c-0.257,14.95-1.383,42.807-5.894,62.401
		c-3.681,15.988-18.677,26.199-18.677,26.199l-12.029-0.712c0,0-6.491-24.399-5.362-34.109c2.246-19.326,8.914-33.85,8.111-51.597
		c-1.284-29.065-9.88-83.013-9.88-83.013L267.161,235.943z"/>
	<polygon style="fill:#263238;" points="246.488,407.328 263.435,408.331 264.983,403.237 246.043,401.486 	"/>
	<path style="opacity:0.2;enable-background:new    ;" d="M248.633,345.58c0.021-0.025,0.037-0.1,0.093-0.094
		c10.651,1.042,18.023-14.327,16.257-35.317l-5.654-53.495L248.633,345.58z"/>
	<path style="fill:#407BFF;" d="M258.744,235.487c0,0,14.915,95.431-16.107,106.174c-16.366,6.201-30.14-0.523-46.447-7.74
		c-9.428-4.173-21.208-15.46-21.208-15.46l4.528-12.331c0,0,10.706-3.476,24.967-1.263c15.903,2.467,16.57,6.965,22.223,3.579
		c11.877-29.369-8.562-52.578,5.33-73.005L258.744,235.487z"/>
	<polygon style="fill:#263238;" points="180.395,303.793 174.343,319.779 178.804,323.188 185.995,304.163 	"/>
	<g>
		<path style="fill:#FFB573;" d="M177.899,217.557c-1.513,2.234-9.17,0.723-9.17,0.723l-1.625-9.49l9.402,3.769L177.899,217.557z"/>
		<path style="fill:#FFB573;" d="M168.985,208.295l1.469,9.861l-5.656,0.847c-0.627,0.053-1.196-0.365-1.333-0.98l-2.16-7.063
			c-0.076-0.34,0.131-0.679,0.468-0.768L168.985,208.295z"/>
		<path style="fill:#FFB573;" d="M166.466,212.772l3.227,0.571l3.042-2.295l-1.177-0.84c-0.798-0.569-1.358-1.411-1.574-2.367
			c-0.232-1.029-0.387-2.139-0.412-3.05l-0.01-0.342c-0.08-0.619-0.562-1.109-1.179-1.201l-0.799,0.593
			c-0.506,1.092-0.145,2.355-0.208,3.206l-0.127,1.655l-1.292,0.56L166.466,212.772z"/>
	</g>
	<path style="fill:#FFB573;" d="M228.673,180.001l-18.919,26.029l-34.772,6.828v5.703c0,0,32.661,2.422,39.988-1.855
		c7.327-4.277,19.654-30.164,19.654-30.164L228.673,180.001z"/>
	<path style="fill:#263238;" d="M228.45,129.99c-7.936-2.665-17.148,2.266-20.783,9.807c-3.635,7.541-2.358,16.791,1.73,24.097
		c1.233,2.203,2.707,4.281,3.71,6.598s1.505,4.98,0.69,7.37c-0.815,2.39-1.657,3.922-4.618,3.535c0,0-0.036-1.639,1.129-1.44l0,0
		c0,0-2.394,1.332-3.335,0.46c1.083,1.685,3.991,1.068,4.924-0.704c1.397-2.654-1.171-6.242-4.17-6.209
		c-2.999,0.033-5.436,3.061-5.34,6.059c0.097,2.998,2.301,5.664,5.038,6.891c-1.621,0.32-3.403-0.632-4.037-2.158
		c1.359,3.562,5.803,5.136,9.551,4.438c3.748-0.698,6.923-3.107,9.859-5.538c3.959-3.278,8.091-7.422,7.967-12.56
		c-0.092-3.827-2.552-7.119-4.62-10.342c-2.067-3.223-3.881-7.17-2.568-10.766c1.114-3.05,4.129-4.89,6.795-6.743
		c1.919-1.334,5.817-4.306,5.358-7.111C235.299,133.045,230.697,130.745,228.45,129.99z"/>
	<path style="fill:#263238;" d="M210.56,219.008l-5.238-13.868l1.201,0.099c1.983,0.164,3.876-0.839,4.847-2.576
		c3.982-7.12,14.331-25.195,17.242-26.093c4.15-1.23,8.42,2.09,10.03,6.99c1.184,3.613-10.979,19.087-16.624,27.89
		C217.02,219.245,210.56,219.008,210.56,219.008z"/>
	<g>
		<path style="fill:#407BFF;" d="M159.446,313.94c0,0-0.004,0.07-0.007,0.11c0.146,0.393,0.485,0.682,0.896,0.764
			c0.248,0.08,0.52,0.019,0.711-0.158c0.846-0.761,0.306-3.989,0.255-4.312c-0.011-0.085-0.076-0.153-0.16-0.17
			c-0.08-0.016-0.163,0.014-0.215,0.077C160.259,311.213,159.176,312.922,159.446,313.94z M160.987,310.925
			c0.185,1.283,0.262,3.021-0.203,3.424c-0.09,0.075-0.214,0.095-0.324,0.051c-0.272-0.052-0.499-0.239-0.602-0.496
			c-0.178-0.541,0.197-1.641,1.126-2.948L160.987,310.925z"/>
		<path style="fill:#407BFF;" d="M160.967,310.764c0.267,1.078,1.28,2.921,2.178,3.134c0.34,0.067,0.681-0.107,0.826-0.422
			c0.158-0.289,0.178-0.633,0.056-0.938c-0.408-1.236-2.771-2.258-2.869-2.304c-0.062-0.043-0.143-0.048-0.21-0.012
			c-0.056,0.049-0.086,0.121-0.082,0.195C160.893,310.535,160.927,310.651,160.967,310.764z M163.686,312.718
			c0.048,0.179,0.018,0.37-0.081,0.526c-0.134,0.233-0.264,0.235-0.364,0.219c-0.614-0.126-1.546-1.634-1.845-2.684
			c0.769,0.386,2.017,1.121,2.263,1.877C163.663,312.679,163.672,312.7,163.686,312.718L163.686,312.718z"/>
	</g>
	<g>
		<path style="fill:#407BFF;" d="M232.375,232.597l-0.924,3.251c-0.125,0.253,0.17,0.511,0.591,0.506l34.496-0.046
			c0.329,0.02,0.601-0.165,0.623-0.364l0.323-3.257c0.013-0.22-0.266-0.416-0.627-0.408l-33.895,0.042
			C232.732,232.302,232.508,232.407,232.375,232.597z"/>
		<path style="opacity:0.5;fill:#FFFFFF;enable-background:new    ;" d="M232.375,232.597l-0.924,3.251
			c-0.125,0.253,0.17,0.511,0.591,0.506l34.496-0.046c0.329,0.02,0.601-0.165,0.623-0.364l0.323-3.257
			c0.013-0.22-0.266-0.416-0.627-0.408l-33.895,0.042C232.732,232.302,232.508,232.407,232.375,232.597z"/>
	</g>
	<g>
		<path style="fill:#407BFF;" d="M238.961,236.655l-1.002,0.001c-0.19-0.011-0.345-0.101-0.328-0.22l0.451-4.231
			c0.007-0.12,0.183-0.22,0.384-0.218l1.002-0.011c0.19,0.011,0.345,0.101,0.327,0.23l-0.45,4.221
			C239.328,236.546,239.151,236.656,238.961,236.655z"/>
		<path style="fill:#407BFF;" d="M263.867,236.65l-1.002,0.001c-0.19-0.011-0.345-0.1-0.328-0.22l0.45-4.221
			c0.008-0.13,0.184-0.23,0.374-0.228l1.002-0.001c0.19,0.011,0.345,0.101,0.328,0.22l-0.45,4.221
			C264.233,236.552,264.067,236.652,263.867,236.65z"/>
		<path style="fill:#407BFF;" d="M252.461,236.628l-1.002,0.001c-0.19-0.011-0.345-0.101-0.328-0.22l0.45-4.221
			c0.008-0.13,0.184-0.229,0.374-0.228l1.002-0.001c0.19,0.011,0.345,0.101,0.328,0.22l-0.45,4.221
			C252.827,236.529,252.661,236.63,252.461,236.628z"/>
	</g>
	<path style="fill:#FFB573;" d="M242.866,158.534c1.06,5.442,2.1,15.281-1.592,18.248c0,0,1.472,5.587,11.362,7.074
		c10.922,1.649,5.189-4.571,5.189-4.571c-5.941-2.355-5.797-6.654-4.771-10.611L242.866,158.534z"/>
	<path style="fill:#FFB573;" d="M241.308,176.734c5.566,0.439,10.223,0.959,15.671,2.18l7.482,2.222
		c1.334,2.684-0.846,8.195-7.111,9.24c0,0-15.771,2.177-20.423-14.062L241.308,176.734z"/>
	<path style="opacity:0.2;enable-background:new    ;" d="M247.019,162.677l6.026,5.997c-0.254,0.928-0.421,1.877-0.498,2.835
		c-2.275-0.666-5.933-3.176-6.181-5.575C246.358,164.815,246.58,163.706,247.019,162.677z"/>
	<path style="fill:#FFB573;" d="M236.192,151.648c2.674,8.463,3.621,12.105,9.103,15.435c8.189,5.003,18.039-0.124,17.906-9.208
		c-0.077-8.179-4.428-20.638-13.725-21.97c-6.609-0.987-12.768,3.57-13.755,10.179C235.442,147.95,235.603,149.855,236.192,151.648z
		"/>
	<path style="fill:#ED893E;" d="M256.375,150.328c0.948,1.492,2.098,2.845,3.417,4.021c-0.629,0.664-1.516,1.02-2.429,0.974
		L256.375,150.328z"/>
	<path style="fill:#263238;" d="M255.425,159.845c0.342-0.035,0.681-0.099,1.013-0.19c0.107-0.026,0.174-0.133,0.148-0.241
		c-0.001-0.004-0.002-0.007-0.003-0.011c-0.031-0.109-0.14-0.176-0.251-0.155c-1.755,0.487-3.637,0.1-5.057-1.041
		c-0.086-0.08-0.221-0.074-0.301,0.012c-0.08,0.087-0.074,0.221,0.012,0.301C252.229,159.538,253.828,160.016,255.425,159.845z"/>
	<path style="fill:#407BFF;" d="M233.282,134.755c-2.211,1.405-3.659,3.941-3.747,6.559c-0.016,0.498,0.017,1.013,0.232,1.462
		c0.215,0.45,0.645,0.823,1.143,0.85c0.763,0.042,1.324-0.675,1.742-1.314c0.645-0.986,1.289-1.972,1.934-2.959
		c0.632-0.967,1.682-2.09,2.025-3.194C237.236,134.149,234.465,134.004,233.282,134.755z"/>
	<path style="fill:#263238;" d="M234.232,136.75c-5.316,6.137-7.688,23.129,7.865,27.866c2.6-2.056-1.599-5.803-3.381-10.546
		c-1.166-3.103,4.759-8.895,7.074-11.267c2.315-2.372,4.436-5.809,7.704-5.259c0.855,0.144,1.766,0.428,2.556,0.07
		c2.589-1.173,1.332-2.722,0.03-3.806c-1.914-1.594-4.607-2.316-7.048-2.581C243.618,130.64,237.838,132.588,234.232,136.75z"/>
	<path style="fill:#263238;" d="M251.504,134.693c6.243,5.208-2.029,5.339-6.372,8.638c-4.195,3.168-1.253,8.361-8.341,10.766
		c-5.792,1.695-7.128,0.677-8.732-0.444c0,0,6.564-0.826,7.528-8.198C236.083,141.665,244.359,128.65,251.504,134.693z"/>
	<path style="fill:#FFB573;" d="M235.249,158.757c0.977,1.412,2.471,2.382,4.158,2.701c2.241,0.393,3.104-1.659,2.33-3.659
		c-0.725-1.796-2.758-4.17-4.922-3.657c-1.557,0.399-2.495,1.985-2.095,3.542C234.819,158.074,235,158.439,235.249,158.757z"/>
	<path style="fill:#263238;" d="M250.428,135.221c1.21,3.077,4.7,2.673,7.285,5.891c1.586,1.967,4.705-4.169,0.461-6.604
		C253.93,132.072,248.529,130.4,250.428,135.221z"/>
	<path style="fill:#263238;" d="M246.754,148.219c0.18,0.021,0.353-0.079,0.425-0.245c0.821-1.827,3.283-2.284,3.306-2.286
		c0.229-0.043,0.38-0.264,0.337-0.493c-0.043-0.229-0.264-0.38-0.493-0.337c-0.124,0.017-2.929,0.589-3.924,2.79
		c-0.098,0.21-0.007,0.46,0.203,0.558c0.001,0,0.001,0.001,0.002,0.001L246.754,148.219z"/>
	<path style="fill:#263238;" d="M259.751,144.542c0.149,0.01,0.291-0.063,0.372-0.188c0.131-0.191,0.082-0.453-0.109-0.584
		c-0.002-0.001-0.004-0.003-0.006-0.004c-1.125-0.774-2.555-0.956-3.838-0.488c-0.216,0.092-0.316,0.342-0.223,0.558
		c0.092,0.216,0.342,0.316,0.558,0.223l0,0l0,0c1.018-0.361,2.149-0.205,3.03,0.42C259.602,144.514,259.676,144.535,259.751,144.542
		z"/>
	<g>
		<path style="fill:#407BFF;" d="M300.861,199.283l-5.85,3.33l-6.09,13.097c0,0,5.881,3.743,10.515,0.713
			C304.069,213.393,300.861,199.283,300.861,199.283z"/>
		<path style="opacity:0.5;fill:#FFFFFF;enable-background:new    ;" d="M300.861,199.283l-5.85,3.33l-6.09,13.097
			c0,0,5.881,3.743,10.515,0.713C304.069,213.393,300.861,199.283,300.861,199.283z"/>
	</g>
	<g>
		<g>
			<path style="fill:#407BFF;" d="M198.389,203.331l6.932,1.96l6.57,13.594c0,0-5.285,4.882-10.995,0.216
				C196.609,215.597,198.389,203.331,198.389,203.331z"/>
		</g>
		<g style="opacity:0.5;enable-background:new    ;">
			<path style="fill:#FFFFFF;" d="M198.389,203.331l6.932,1.96l6.57,13.594c0,0-5.285,4.882-10.995,0.216
				C196.609,215.597,198.389,203.331,198.389,203.331z"/>
		</g>
	</g>
	<g>
		<path style="fill:#263238;" d="M259.348,147.931c0.48-0.09,0.98,0.45,1.11,1.19c0.13,0.74-0.16,1.42-0.64,1.5
			c-0.48,0.08-0.98-0.45-1.11-1.19C258.568,148.711,258.868,148.021,259.348,147.931z"/>
		<path style="fill:#263238;" d="M260.828,147.201l-1.69,0.83C260.158,148.751,260.828,147.201,260.828,147.201z"/>
	</g>
	<g>
		<path style="fill:#263238;" d="M250.976,149.645c0.48-0.09,0.98,0.45,1.11,1.19c0.13,0.74-0.16,1.42-0.64,1.5
			c-0.48,0.08-0.98-0.45-1.11-1.19C250.196,150.425,250.496,149.735,250.976,149.645z"/>
		<path style="fill:#263238;" d="M252.456,148.915l-1.69,0.83C251.786,150.465,252.456,148.915,252.456,148.915z"/>
	</g>
	<g>
		<path style="fill:#263238;" d="M208.662,187.91c-0.953,0-1.89-0.167-2.753-0.52c-3.098-1.266-4.541-4.493-3.958-8.854
			c0.036-0.274,0.292-0.467,0.562-0.429c0.273,0.037,0.466,0.288,0.429,0.562c-0.517,3.874,0.702,6.715,3.347,7.795
			c2.859,1.169,6.661,0,8.652-2.659c2.505-3.344,1.694-8.083-2.225-13.001c-10.239-12.85-9.554-19.684-8.108-25.08
			c2.102-7.84,8.255-16.825,25.652-15.097c0.274,0.027,0.475,0.272,0.447,0.547c-0.027,0.275-0.26,0.471-0.547,0.448
			c-16.687-1.662-22.586,6.895-24.586,14.361c-1.447,5.397-2.026,11.711,7.923,24.198c6.001,7.531,3.568,12.456,2.244,14.224
			C214.085,186.615,211.31,187.909,208.662,187.91z"/>
	</g>
</g>
</svg>
