<?xml version="1.0" encoding="utf-8"?>
<!-- Generator: Adobe Illustrator 27.5.0, SVG Export Plug-In . SVG Version: 6.00 Build 0)  -->
<svg version="1.1" xmlns="http://www.w3.org/2000/svg" xmlns:xlink="http://www.w3.org/1999/xlink" x="0px" y="0px"
	 viewBox="0 0 500 500" style="enable-background:new 0 0 500 500;" xml:space="preserve">
<g id="Background_Complete">
	<g>
		<g>
			<rect y="382.398" style="fill:#EBEBEB;" width="500" height="0.25"/>
			<path style="fill:#EBEBEB;" d="M237.014,337.8H43.915c-3.147,0-5.708-2.561-5.708-5.708V60.66c0-3.147,2.561-5.708,5.708-5.708
				h193.099c3.146,0,5.707,2.561,5.707,5.708v271.432C242.721,335.239,240.16,337.8,237.014,337.8z M43.915,55.203
				c-3.01,0-5.458,2.448-5.458,5.458v271.432c0,3.01,2.448,5.458,5.458,5.458h193.099c3.009,0,5.457-2.448,5.457-5.458V60.66
				c0-3.009-2.448-5.458-5.457-5.458H43.915z"/>
			<path style="fill:#EBEBEB;" d="M453.31,337.8H260.212c-3.147,0-5.707-2.561-5.707-5.708V60.66c0-3.147,2.561-5.708,5.707-5.708
				H453.31c3.148,0,5.708,2.561,5.708,5.708v271.432C459.019,335.239,456.458,337.8,453.31,337.8z M260.212,55.203
				c-3.009,0-5.457,2.448-5.457,5.458v271.432c0,3.01,2.448,5.458,5.457,5.458H453.31c3.01,0,5.458-2.448,5.458-5.458V60.66
				c0-3.009-2.448-5.458-5.458-5.458H260.212z"/>
		</g>
		<g>
			<rect x="423.904" y="398.494" style="fill:#EBEBEB;" width="25.997" height="0.25"/>
			<rect x="311" y="401.208" style="fill:#EBEBEB;" width="45.027" height="0.25"/>
			<rect x="362.111" y="389.208" style="fill:#EBEBEB;" width="60.792" height="0.25"/>
			<rect x="52.459" y="390.888" style="fill:#EBEBEB;" width="19.235" height="0.25"/>
			<rect x="80.597" y="390.888" style="fill:#EBEBEB;" width="55.292" height="0.25"/>
			<rect x="169.667" y="395.111" style="fill:#EBEBEB;" width="74.467" height="0.25"/>
		</g>
	</g>
	<g>
		<g>
			<g>
				<g>
					<g>
						<g>
							<rect x="331.478" y="87.295" style="fill:#E6E6E6;" width="92.523" height="125.896"/>
							<rect x="335.429" y="87.295" style="fill:#F5F5F5;" width="92.523" height="125.896"/>
							
								<rect x="325.291" y="111.073" transform="matrix(-1.836970e-16 1 -1 -1.836970e-16 531.9326 -231.4478)" style="fill:#FFFFFF;" width="112.798" height="78.339"/>
							
								<rect x="362.967" y="148.749" transform="matrix(-1.836970e-16 1 -1 -1.836970e-16 569.6087 -269.1239)" style="fill:#E6E6E6;" width="112.798" height="2.987"/>
							<rect x="338.362" y="113.562" style="fill:#F5F5F5;" width="86.656" height="8.792"/>
						</g>
					</g>
				</g>
				<g>
					<g>
						<g>
							<rect x="197.872" y="87.295" style="fill:#E6E6E6;" width="92.523" height="125.896"/>
							<rect x="201.823" y="87.295" style="fill:#F5F5F5;" width="92.523" height="125.896"/>
							
								<rect x="191.685" y="111.073" transform="matrix(-1.836970e-16 1 -1 -1.836970e-16 398.3268 -97.842)" style="fill:#FFFFFF;" width="112.798" height="78.339"/>
							
								<rect x="229.362" y="148.749" transform="matrix(-1.836970e-16 1 -1 -1.836970e-16 436.003 -135.5181)" style="fill:#E6E6E6;" width="112.798" height="2.987"/>
							<rect x="204.757" y="113.562" style="fill:#F5F5F5;" width="86.656" height="8.792"/>
						</g>
					</g>
				</g>
				<g>
					<g>
						<g>
							<rect x="64.266" y="87.295" style="fill:#E6E6E6;" width="92.523" height="125.896"/>
							<rect x="68.217" y="87.295" style="fill:#F5F5F5;" width="92.523" height="125.896"/>
							
								<rect x="58.08" y="111.073" transform="matrix(-1.836970e-16 1 -1 -1.836970e-16 264.721 35.7637)" style="fill:#FFFFFF;" width="112.798" height="78.339"/>
							
								<rect x="95.756" y="148.749" transform="matrix(-1.836970e-16 1 -1 -1.836970e-16 302.3972 -1.9124)" style="fill:#E6E6E6;" width="112.798" height="2.987"/>
							<rect x="71.151" y="113.562" style="fill:#F5F5F5;" width="86.656" height="8.792"/>
						</g>
					</g>
				</g>
			</g>
		</g>
		<g>
			
				<ellipse transform="matrix(0.2298 -0.9732 0.9732 0.2298 -204.0719 375.8033)" style="fill:#EBEBEB;" cx="135.388" cy="316.83" rx="14.085" ry="14.085"/>
			<rect x="91.971" y="372.084" style="fill:#F5F5F5;" width="53.381" height="10.314"/>
			<rect x="97.216" y="287.011" style="fill:#F5F5F5;" width="42.892" height="85.073"/>
			<rect x="129.619" y="287.011" style="fill:#EBEBEB;" width="10.489" height="85.073"/>
			<rect x="91.971" y="283.415" style="fill:#F5F5F5;" width="53.381" height="7.192"/>
			<path style="fill:#F5F5F5;" d="M118.662,263.242c-12.755,0-23.094,10.34-23.094,23.094h46.189
				C141.757,273.582,131.417,263.242,118.662,263.242z"/>
			<path style="fill:#F5F5F5;" d="M118.662,261.163c-1.459,0-2.641,1.182-2.641,2.641h5.282
				C121.303,262.346,120.121,261.163,118.662,261.163z"/>
			
				<ellipse transform="matrix(0.2298 -0.9732 0.9732 0.2298 -229.8672 343.2095)" style="fill:#EBEBEB;" cx="101.898" cy="316.83" rx="14.085" ry="14.085"/>
			
				<ellipse transform="matrix(0.7071 -0.7071 0.7071 0.7071 -195.1087 162.6254)" style="fill:#F5F5F5;" cx="98.752" cy="316.83" rx="14.085" ry="14.085"/>
		</g>
		<g>
			<polygon style="fill:#E0E0E0;" points="211.53,283.415 206.697,283.415 194.431,382.398 199.264,382.398 			"/>
			<polygon style="fill:#E0E0E0;" points="405.037,283.415 400.204,283.415 387.938,382.398 392.772,382.398 			"/>
			<polygon style="fill:#E0E0E0;" points="239.812,332.907 244.646,332.907 250.778,382.398 245.945,382.398 			"/>
			<polygon style="fill:#E0E0E0;" points="432.923,332.907 437.757,332.907 443.889,382.398 439.056,382.398 			"/>
			<g>
				<polygon style="fill:#F5F5F5;" points="414.112,325.222 198.109,325.222 190.959,274.79 406.962,274.79 				"/>
				<polygon style="fill:#EBEBEB;" points="193.032,325.222 198.109,325.222 190.959,274.79 185.882,274.79 				"/>
			</g>
			<g>
				<polygon style="fill:#F5F5F5;" points="441.11,334.778 249.193,334.778 245.964,329.547 437.881,329.547 				"/>
				<polygon style="fill:#EBEBEB;" points="194.647,334.778 249.193,334.778 245.964,329.547 191.417,329.547 				"/>
			</g>
		</g>
	</g>
</g>
<g id="Background_Simple" style="display:none;">
	<g style="display:inline;">
		<path style="fill:#407BFF;" d="M164.289,154.223c96.551-12.98,185.166-102.892,222.708,21.226
			c19.103,63.158,72.897,81.712,47.259,127.388c-17.602,31.358-87.072,63.08-121.757,67.155
			c-52.25,6.139-78.962-26.398-111.557-60.116c-36.888-38.159-78.364-36.444-118.911-63.858
			c-29.587-20.004-47.962-78.862-15.892-107.762C105.434,102.845,123.148,159.753,164.289,154.223z"/>
		<path style="opacity:0.9;fill:#FFFFFF;" d="M164.289,154.223c96.551-12.98,185.166-102.892,222.708,21.226
			c19.103,63.158,72.897,81.712,47.259,127.388c-17.602,31.358-87.072,63.08-121.757,67.155
			c-52.25,6.139-78.962-26.398-111.557-60.116c-36.888-38.159-78.364-36.444-118.911-63.858
			c-29.587-20.004-47.962-78.862-15.892-107.762C105.434,102.845,123.148,159.753,164.289,154.223z"/>
	</g>
</g>
<g id="Shadow_1_">
	<ellipse id="_x3C_Path_x3E__211_" style="fill:#F5F5F5;" cx="250" cy="416.238" rx="193.889" ry="11.323"/>
</g>
<g id="Character_1_">
	<g>
		<g>
			<path style="fill:#407BFF;" d="M207.3,159.386c2.423,0.528,4.352,2.475,4.855,4.905c12.728,61.51-19.672,83.1-24.936,84.108
				c-5.264,1.008-44.516-6.859-60.268-67.789c-0.622-2.407,0.275-4.895,2.256-6.267l33.064-22.887
				c1.32-0.913,2.978-1.231,4.592-0.879L207.3,159.386z"/>
			<path style="opacity:0.4;" d="M207.3,159.386c2.423,0.528,4.352,2.475,4.855,4.905c12.728,61.51-19.672,83.1-24.936,84.108
				c-5.264,1.008-44.516-6.859-60.268-67.789c-0.622-2.407,0.275-4.895,2.256-6.267l33.064-22.887
				c1.32-0.913,2.978-1.231,4.592-0.879L207.3,159.386z"/>
		</g>
		<g>
			<polygon style="fill:#FF8B7B;" points="232.602,396.374 240.111,394.165 236.994,376.187 229.485,378.396 			"/>
			<polygon style="fill:#FF8B7B;" points="168.941,408.246 176.768,408.246 179.788,390.119 171.961,390.119 			"/>
			<path style="fill:#263238;" d="M177.523,407.34l-9.543,0c-0.32,0-0.597,0.222-0.667,0.535l-1.546,6.958
				c-0.16,0.722,0.407,1.405,1.146,1.392c3.07-0.053,5.311-0.233,9.178-0.233c2.379,0,9.554,0.247,12.839,0.247
				c3.213,0,3.715-3.249,2.37-3.543c-6.031-1.319-10.576-3.139-12.506-4.874C178.445,407.508,177.991,407.34,177.523,407.34z"/>
			<path style="fill:#263238;" d="M239.803,393.311l-8.201,2.412c-0.307,0.09-0.51,0.382-0.488,0.701l0.48,7.111
				c0.05,0.737,0.768,1.238,1.473,1.018c2.944-0.92,7.167-2.351,10.885-3.445c4.348-1.279,6.116-1.726,11.215-3.226
				c3.083-0.907,3.022-4.275,1.648-4.178c-6.252,0.443-9.034,1.296-15.031-0.341C241.132,393.186,240.451,393.12,239.803,393.311z"
				/>
			<g>
				<polygon style="opacity:0.2;" points="236.994,376.193 238.602,385.459 231.089,387.668 229.481,378.402 				"/>
				<polygon style="opacity:0.2;" points="171.958,390.124 179.788,390.124 178.228,399.468 170.398,399.468 				"/>
			</g>
			<path style="fill:#263238;" d="M240.906,382.897l-12.717,3.734c0,0-10.337-43.442-15.3-67.323
				c-1.511-7.264-4.59-17.273-8.249-27.944c-4.616-13.443-10.141-27.92-14.605-39.241c-4.707-11.923-8.218-20.341-8.218-20.341
				l27.076-4.94c0,0,23.719,62.67,27.166,86.309C239.644,337.732,240.906,382.897,240.906,382.897z"/>
			<path style="opacity:0.2;" d="M204.639,291.365c-4.616-13.443-10.141-27.92-14.605-39.241l2.153-6.413
				C199.851,253,204.443,277.694,204.639,291.365z"/>
			<path style="fill:#263238;" d="M194.284,229.508c0,0,4.469,66.93,3.696,89.851c-0.847,25.101-16.117,78.299-16.117,78.299
				h-14.336c0,0,6.298-47.771,8.097-72.193c2.05-27.819-7.915-91.107-7.915-91.107L194.284,229.508z"/>
			<polygon style="fill:#407BFF;" points="183.578,397.968 166.697,397.968 166.697,392.925 185.568,392.597 			"/>
			<polygon style="fill:#407BFF;" points="242.59,382.723 227.437,387.18 225.997,382.284 242.859,377.044 			"/>
			<path style="fill:#407BFF;" d="M180.111,408.707c0.596,0,1.153-0.101,1.508-0.399c0.281-0.236,0.41-0.565,0.383-0.98
				c-0.019-0.309-0.183-0.455-0.318-0.524c-0.864-0.446-3.391,1.106-3.676,1.285c-0.063,0.04-0.097,0.113-0.085,0.187
				c0.012,0.073,0.067,0.133,0.14,0.151C178.607,408.557,179.387,408.707,180.111,408.707z M181.274,407.087
				c0.097,0,0.178,0.015,0.24,0.047c0.05,0.026,0.108,0.073,0.117,0.218c0.018,0.295-0.064,0.515-0.252,0.673
				c-0.428,0.359-1.451,0.408-2.779,0.141C179.484,407.654,180.674,407.087,181.274,407.087z"/>
			<path style="fill:#407BFF;" d="M178.107,408.431c0.03,0,0.061-0.007,0.088-0.022c0.81-0.44,2.376-2.155,2.21-3.028
				c-0.03-0.158-0.147-0.432-0.59-0.486c-0.288-0.033-0.553,0.045-0.79,0.239c-0.91,0.743-1.097,3.002-1.104,3.098
				c-0.005,0.068,0.027,0.133,0.084,0.17C178.036,408.421,178.072,408.431,178.107,408.431z M179.686,405.258
				c0.028,0,0.056,0.001,0.084,0.005c0.241,0.029,0.262,0.14,0.271,0.187c0.098,0.515-0.9,1.811-1.705,2.422
				c0.091-0.659,0.341-1.976,0.924-2.452C179.394,405.312,179.534,405.258,179.686,405.258z"/>
			<path style="fill:#407BFF;" d="M240.847,394.131c0.008,0,0.017,0,0.025,0c1.281-0.115,3.52-0.452,4.129-1.423
				c0.183-0.293,0.21-0.617,0.079-0.964c-0.078-0.206-0.228-0.34-0.433-0.387c-1.067-0.247-3.63,2.179-3.919,2.455
				c-0.057,0.055-0.073,0.139-0.041,0.211C240.716,394.086,240.779,394.128,240.847,394.131z M244.492,391.709
				c0.026,0.001,0.05,0.004,0.073,0.009c0.083,0.019,0.133,0.066,0.168,0.157c0.089,0.235,0.074,0.443-0.046,0.635
				c-0.342,0.545-1.556,0.98-3.295,1.193C242.415,392.785,243.868,391.68,244.492,391.709z"/>
			<path style="fill:#407BFF;" d="M240.847,394.131c0.047,0.002,0.093-0.013,0.129-0.044c0.786-0.673,2.104-2.825,1.717-3.634
				c-0.091-0.19-0.305-0.395-0.809-0.302c-0.374,0.07-0.675,0.27-0.897,0.595c-0.725,1.065-0.332,3.147-0.315,3.236
				c0.013,0.065,0.059,0.118,0.121,0.14C240.812,394.127,240.83,394.13,240.847,394.131z M242.146,390.498
				c0.163,0.008,0.199,0.085,0.214,0.115c0.232,0.485-0.613,2.12-1.374,2.948c-0.077-0.619-0.166-1.908,0.31-2.607
				c0.166-0.244,0.381-0.387,0.658-0.439C242.032,390.5,242.095,390.496,242.146,390.498z"/>
			<path style="fill:#FF8B7B;" d="M202.329,166.268c1.054,2.016,2.215,4.259,3.4,6.356c1.193,2.122,2.389,4.243,3.642,6.317
				c2.502,4.137,5.134,8.195,8.034,11.821l1.045,1.296c0.262,0.329,0.508,0.574,0.701,0.76c0.193,0.182,0.32,0.288,0.287,0.309
				c-0.024,0.024-0.261-0.004-0.507,0.07c-0.252,0.074-0.398,0.193-0.347,0.212c0.04,0.018,0.234-0.072,0.468-0.273
				c0.478-0.403,1.063-1.17,1.584-2.038c1.086-1.751,2.022-3.926,2.88-6.14c0.413-1.118,0.853-2.249,1.234-3.405l1.104-3.45
				l5.822,0.802c-0.016,1.406-0.099,2.688-0.226,4.026c-0.129,1.324-0.262,2.659-0.495,3.99c-0.447,2.672-1.057,5.347-2.183,8.155
				c-0.593,1.4-1.289,2.843-2.469,4.36c-0.594,0.754-1.335,1.537-2.357,2.244c-1.009,0.701-2.352,1.335-3.868,1.532
				c-1.506,0.215-3.027-0.01-4.235-0.429c-1.222-0.42-2.188-0.981-3.003-1.56c-0.813-0.58-1.513-1.183-2.114-1.781
				c-0.343-0.326-0.519-0.529-0.773-0.79l-0.711-0.746c-0.97-0.988-1.83-2.019-2.733-3.041c-0.838-1.048-1.718-2.083-2.512-3.151
				c-1.655-2.11-3.141-4.301-4.606-6.502c-1.448-2.21-2.812-4.458-4.098-6.75c-0.642-1.147-1.268-2.301-1.88-3.469
				c-0.63-1.178-1.184-2.311-1.791-3.616L202.329,166.268z"/>
			<path style="fill:#407BFF;" d="M188.108,167.307c-1.337,7.363,15.512,25.251,15.512,25.251l13.874-11.174
				c0,0-5.437-9.464-12.189-16.402C198.372,157.858,189.576,159.227,188.108,167.307z"/>
			<path style="opacity:0.2;" d="M204.748,178.777c1.743,3.027,3.22,6.335,4.414,9.323l-5.546,4.463
				c0,0-10.002-10.621-13.978-18.868C193.79,169.78,200.627,171.58,204.748,178.777z"/>
			<path style="fill:#407BFF;" d="M153.075,167.852c3.356,8.329,5.864,16.913,7.792,25.039c1.406,5.946,2.489,11.65,3.344,16.837
				c2.008,12.156,2.777,21.509,3.492,24.627c6.036-1.099,28.783-5.245,41.185-7.511c0.727-44.881-12.605-66.479-12.605-66.479
				s-4.697-0.405-10.072-0.122c-0.708,0.033-1.426,0.088-2.155,0.154c-4.712,0.424-12.297,1.982-17.51,3.193
				c-1.096,0.256-2.201,0.543-3.273,0.841C157.815,165.953,153.075,167.852,153.075,167.852z"/>
			<path style="fill:#263238;" d="M161.668,228.667c-0.385,0-0.751-0.223-0.916-0.597c-0.223-0.505,0.007-1.095,0.512-1.318
				c0.374-0.165,37.311-17.075,30.983-67.852c-0.068-0.548,0.32-1.047,0.868-1.116c0.552-0.068,1.049,0.321,1.116,0.869
				c6.517,52.301-31.774,69.759-32.162,69.93C161.939,228.64,161.802,228.667,161.668,228.667z"/>
			<g>
				<g>
					<path style="fill:#407BFF;" d="M163.313,269.854L163.313,269.854c-0.819-0.534-1.051-1.642-0.517-2.46L294.214,66.041
						c0.534-0.819,1.642-1.051,2.46-0.517l0,0c0.819,0.534,1.051,1.642,0.517,2.46L165.773,269.337
						C165.239,270.155,164.132,270.388,163.313,269.854z"/>
					<path style="opacity:0.7;fill:#FFFFFF;" d="M163.313,269.854L163.313,269.854c-0.819-0.534-1.051-1.642-0.517-2.46
						L294.214,66.041c0.534-0.819,1.642-1.051,2.46-0.517l0,0c0.819,0.534,1.051,1.642,0.517,2.46L165.773,269.337
						C165.239,270.155,164.132,270.388,163.313,269.854z"/>
				</g>
				<path style="fill:#407BFF;" d="M382.067,132.429c-1.607-1.273-3.274-2.633-4.955-4.042l0.643-0.767
					c1.673,1.402,3.333,2.756,4.934,4.024L382.067,132.429z"/>
				<path style="fill:#407BFF;" d="M372.728,124.637c-4.937-4.301-9.794-8.784-14.49-13.12l0.678-0.734
					c4.692,4.331,9.544,8.809,14.469,13.101L372.728,124.637z"/>
				<path style="fill:#407BFF;" d="M374.742,234.989c-53.846-13.913-79.495-71.028-131.492-87.773
					c-2.663-0.858-3.776-4.017-2.247-6.36l45.402-69.562c1.029-1.577,2.974-2.287,4.781-1.755
					c53.553,15.773,79.158,74.365,133.792,88.482L374.742,234.989z"/>
				<g>
					<path style="fill:#FFFFFF;" d="M350.972,121.888c-0.35,1.221-0.701,2.443-1.052,3.664c0.902,0.833,1.804,1.665,2.708,2.496
						c-1.12-0.076-2.239-0.154-3.358-0.231c-0.35,1.221-0.701,2.443-1.051,3.664c-0.341-1.269-0.682-2.538-1.023-3.808
						c-1.119-0.078-2.237-0.155-3.356-0.233c0.908-0.707,1.816-1.414,2.724-2.121c-0.341-1.269-0.682-2.538-1.024-3.806
						c0.903,0.831,1.806,1.663,2.708,2.496C349.155,123.302,350.064,122.595,350.972,121.888z"/>
					<path style="fill:#FFFFFF;" d="M316.818,174.217c-0.35,1.221-0.701,2.443-1.051,3.664c0.902,0.833,1.804,1.665,2.708,2.496
						c-1.12-0.076-2.239-0.154-3.358-0.231c-0.35,1.221-0.701,2.443-1.051,3.664c-0.341-1.269-0.682-2.538-1.023-3.808
						c-1.119-0.078-2.237-0.156-3.356-0.233c0.908-0.707,1.816-1.414,2.724-2.121c-0.341-1.269-0.682-2.538-1.024-3.806
						c0.903,0.831,1.806,1.663,2.708,2.496C315.002,175.63,315.91,174.923,316.818,174.217z"/>
					<path style="fill:#FFFFFF;" d="M337.069,114.863c-0.347,1.216-0.694,2.432-1.041,3.648c0.913,0.817,1.822,1.638,2.73,2.462
						c-1.123-0.071-2.248-0.139-3.374-0.206c-0.348,1.217-0.695,2.434-1.044,3.652c-0.347-1.26-0.696-2.517-1.047-3.772
						c-1.128-0.063-2.259-0.123-3.391-0.18c0.913-0.715,1.826-1.429,2.739-2.143c-0.353-1.251-0.708-2.499-1.066-3.743
						c0.923,0.801,1.842,1.608,2.757,2.419C335.245,116.288,336.157,115.576,337.069,114.863z"/>
					<path style="fill:#FFFFFF;" d="M360.246,136.005c-0.912,0.713-1.823,1.425-2.734,2.136c-0.913-0.817-1.822-1.637-2.73-2.461
						c0.345,1.262,0.692,2.523,1.041,3.78c-0.911,0.711-1.822,1.422-2.732,2.133c1.125,0.068,2.251,0.133,3.38,0.197
						c0.351,1.255,0.703,2.506,1.058,3.755c0.345-1.214,0.691-2.427,1.037-3.641c1.131,0.059,2.263,0.115,3.399,0.167
						c-0.923-0.801-1.842-1.608-2.757-2.419C359.553,138.436,359.899,137.221,360.246,136.005z"/>
					<path style="fill:#FFFFFF;" d="M330.082,181.436c-0.347,1.216-0.694,2.432-1.04,3.647c0.915,0.812,1.833,1.62,2.755,2.423
						c-1.134-0.053-2.267-0.111-3.397-0.171c-0.346,1.215-0.692,2.429-1.037,3.643c-0.354-1.249-0.706-2.502-1.056-3.757
						c-1.128-0.064-2.254-0.13-3.379-0.199c0.91-0.71,1.821-1.421,2.731-2.132c-0.348-1.258-0.694-2.52-1.04-3.782
						c0.907,0.824,1.816,1.646,2.728,2.464C328.259,182.86,329.17,182.148,330.082,181.436z"/>
					<path style="fill:#FFFFFF;" d="M307.552,160.872c-0.912,0.712-1.823,1.425-2.735,2.138c-0.915-0.813-1.833-1.62-2.755-2.423
						c0.357,1.245,0.711,2.494,1.064,3.745c-0.913,0.714-1.825,1.428-2.738,2.142c1.132,0.058,2.262,0.119,3.389,0.182
						c0.35,1.255,0.698,2.513,1.045,3.773c0.348-1.218,0.696-2.435,1.044-3.653c1.126,0.067,2.25,0.136,3.373,0.208
						c-0.908-0.824-1.817-1.646-2.728-2.464C306.858,163.305,307.205,162.088,307.552,160.872z"/>
					<path style="fill:#FFFFFF;" d="M322.019,117.289c-0.34,1.205-0.679,2.409-1.02,3.615c0.935,0.782,1.865,1.571,2.792,2.367
						c-1.138-0.048-2.279-0.091-3.423-0.13c-0.341,1.207-0.682,2.414-1.024,3.622c-0.364-1.234-0.731-2.464-1.101-3.689
						c-1.148-0.033-2.299-0.062-3.453-0.085c0.922-0.728,1.843-1.455,2.763-2.181c-0.374-1.218-0.751-2.432-1.133-3.64
						c0.952,0.756,1.898,1.521,2.839,2.294C320.181,118.737,321.1,118.013,322.019,117.289z"/>
					<path style="fill:#FFFFFF;" d="M362.431,153.29c-0.919,0.724-1.838,1.447-2.756,2.169c-0.935-0.782-1.865-1.572-2.792-2.367
						c0.361,1.239,0.724,2.475,1.09,3.705c-0.918,0.722-1.835,1.442-2.752,2.163c1.142,0.042,2.287,0.081,3.434,0.114
						c0.37,1.225,0.743,2.445,1.12,3.66c0.337-1.2,0.674-2.402,1.012-3.604c1.152,0.027,2.307,0.049,3.466,0.065
						c-0.952-0.756-1.898-1.521-2.839-2.294C361.752,155.698,362.091,154.495,362.431,153.29z"/>
					<path style="fill:#FFFFFF;" d="M345.302,178.854c-0.34,1.205-0.679,2.409-1.018,3.612c0.94,0.775,1.885,1.542,2.836,2.299
						c-1.158-0.018-2.312-0.041-3.463-0.069c-0.338,1.202-0.676,2.404-1.013,3.605c-0.376-1.216-0.748-2.437-1.117-3.663
						c-1.147-0.034-2.291-0.074-3.432-0.117c0.916-0.72,1.833-1.44,2.751-2.161c-0.366-1.232-0.728-2.469-1.088-3.709
						c0.925,0.797,1.855,1.587,2.789,2.371C343.465,180.299,344.383,179.577,345.302,178.854z"/>
					<path style="fill:#FFFFFF;" d="M305.466,143.331c-0.919,0.723-1.838,1.447-2.758,2.172c-0.94-0.775-1.885-1.541-2.836-2.299
						c0.38,1.209,0.757,2.424,1.13,3.644c-0.92,0.726-1.841,1.452-2.762,2.179c1.154,0.025,2.303,0.054,3.451,0.089
						c0.369,1.226,0.735,2.457,1.099,3.692c0.342-1.208,0.683-2.416,1.025-3.623c1.143,0.04,2.284,0.085,3.421,0.134
						c-0.926-0.797-1.855-1.587-2.789-2.371C304.786,145.741,305.127,144.536,305.466,143.331z"/>
					<path style="fill:#FFFFFF;" d="M310.16,127.764c-0.336,1.199-0.672,2.398-1.008,3.598c0.947,0.764,1.888,1.537,2.824,2.316
						c-1.146-0.035-2.296-0.065-3.449-0.09c-0.337,1.201-0.675,2.403-1.013,3.606c-0.373-1.221-0.749-2.436-1.129-3.646
						c-1.158-0.018-2.319-0.03-3.484-0.037c0.926-0.734,1.851-1.467,2.776-2.2c-0.385-1.203-0.773-2.399-1.166-3.59
						c0.966,0.735,1.925,1.479,2.879,2.233C308.314,129.224,309.237,128.493,310.16,127.764z"/>
					<path style="fill:#FFFFFF;" d="M357.131,169.105c-0.336,1.199-0.671,2.396-1.005,3.593c0.954,0.754,1.913,1.498,2.879,2.233
						c-1.171,0.001-2.337-0.004-3.499-0.015c-0.334,1.196-0.667,2.391-1,3.585c-0.387-1.198-0.771-2.402-1.151-3.612
						c-1.158-0.018-2.312-0.042-3.462-0.071c0.92-0.725,1.841-1.452,2.762-2.179c-0.375-1.217-0.747-2.439-1.116-3.665
						c0.937,0.78,1.878,1.552,2.824,2.316C355.285,170.564,356.208,169.835,357.131,169.105z"/>
				</g>
				<g>
					<path style="fill:#FFFFFF;" d="M340.287,156.74c-5.047-4.588-10.037-9.264-15.084-13.852c-0.62-0.565-1.5-0.458-1.953,0.237
						c-2.531,3.879-5.063,7.757-7.595,11.636c-0.453,0.695-0.314,1.722,0.307,2.286c5.047,4.589,10.037,9.264,15.083,13.852
						c0.62,0.564,1.5,0.457,1.953-0.237c2.532-3.879,5.063-7.757,7.595-11.636C341.047,158.332,340.908,157.305,340.287,156.74z
						 M329.088,157.53c-0.805,1.577-1.61,3.153-2.415,4.73c-0.853-0.788-1.706-1.575-2.56-2.363
						c1.084-1.319,2.169-2.637,3.253-3.956c-0.383-0.92-0.337-2.024,0.203-2.851c0.769-1.178,2.238-1.348,3.287-0.381
						c1.046,0.965,1.272,2.701,0.504,3.879C330.822,157.414,329.934,157.745,329.088,157.53z"/>
					<path style="fill:#FFFFFF;" d="M339.841,154.124L339.841,154.124c-0.552-0.505-0.672-1.415-0.269-2.033
						c0.24-0.368,0.481-0.737,0.721-1.105c1.934-2.962,1.763-7.342-0.604-10.134c-2.863-3.379-7.384-3.1-9.648,0.369
						c-0.285,0.436-0.569,0.872-0.854,1.308c-0.404,0.618-1.178,0.709-1.73,0.205c0,0,0,0,0,0c-0.551-0.504-0.673-1.413-0.27-2.032
						c0.223-0.341,0.445-0.682,0.668-1.023c2.803-4.293,8.142-5.415,12.139-2.18c4.383,3.549,5.451,10.482,2.43,15.111
						c-0.285,0.436-0.569,0.872-0.854,1.308C341.168,154.535,340.394,154.628,339.841,154.124z"/>
				</g>
			</g>
			<path style="opacity:0.2;" d="M160.866,192.891c1.406,5.946,2.489,11.65,3.344,16.837l4.345-17.169L160.866,192.891z"/>
			<path style="fill:#263238;" d="M168.954,143.053c1.512,2.021,1.336,4.707-0.392,6c-1.728,1.293-4.355,0.703-5.867-1.318
				c-1.512-2.021-1.336-4.707,0.392-6C164.816,140.442,167.442,141.032,168.954,143.053z"/>
			<path style="fill:#263238;" d="M181.609,128.929c1.102,4.23,0.303,8.1-1.786,8.645c-2.089,0.544-4.676-2.443-5.778-6.673
				c-1.102-4.23-0.303-8.1,1.786-8.645C177.919,121.712,180.506,124.699,181.609,128.929z"/>
			<path style="fill:#FF8B7B;" d="M164.684,143.559c2.133,5.432,5.119,15.552,1.864,20.03c3.433,2.448,8.175,4.199,14.478,2.907
				c4.828-0.99,4.453-4.422,3.03-6.102c-6.555-0.354-7.244-5.044-6.949-9.62L164.684,143.559z"/>
			<path style="opacity:0.2;" d="M169.749,146.503l7.352,4.266c-0.074,1.084-0.086,2.172,0.027,3.206
				c-2.463,0.091-6.241-1.941-6.954-4.408C169.819,148.338,169.652,147.124,169.749,146.503z"/>
			<path style="fill:#FF8B7B;" d="M160.564,137.208c3.013,7.16,4.413,11.504,9.425,13.965c7.539,3.702,15.397-2.814,14.584-10.73
				c-0.732-7.125-5.537-17.638-13.72-18.04C162.791,122.007,157.551,130.048,160.564,137.208z"/>
			<path style="fill:#263238;" d="M164.361,142.556c1.107-1.583,2.556-8.431,0.514-11.181c2.042-0.958,11.095-3.649,13.019-6.917
				c2.356-4,3.766-10.702-5.969-11.375c-9.734-0.673-5.634,6.833-5.634,6.833s-18.708,4.833-13.875,10.417
				c-6.542,3.333,4.583,15.184,7.667,13.958c1.882-0.748,3.643,3.167,4.601,1.375C165.643,143.875,164.361,142.556,164.361,142.556z
				"/>
			<path style="fill:#FF8B7B;" d="M159.936,145.509c1.528,1.433,3.575,2.027,5.294,1.945c2.586-0.124,3.067-2.634,1.668-4.649
				c-1.259-1.814-4.123-3.935-6.391-2.824C158.271,141.074,158.189,143.87,159.936,145.509z"/>
			<path style="fill:#263238;" d="M172.38,135.365c0.209,0.596,0.694,0.968,1.083,0.832c0.39-0.136,0.536-0.73,0.327-1.326
				s-0.694-0.968-1.083-0.832C172.318,134.175,172.172,134.769,172.38,135.365z"/>
			<path style="fill:#263238;" d="M179.115,133.005c0.209,0.596,0.694,0.968,1.083,0.832c0.389-0.136,0.536-0.73,0.327-1.326
				c-0.209-0.596-0.694-0.968-1.083-0.832C179.053,131.816,178.906,132.409,179.115,133.005z"/>
			<path style="fill:#FF5652;" d="M177.078,134.052c0,0,2.559,2.963,4.632,4.098c-0.709,1.353-2.659,1.531-2.659,1.531
				L177.078,134.052z"/>
			<path style="fill:#263238;" d="M177.097,142.156c0.256-0.053,0.521-0.125,0.793-0.221c0.097-0.034,0.148-0.14,0.114-0.236
				c-0.034-0.098-0.142-0.147-0.236-0.114c-2.618,0.914-4.476-0.483-4.495-0.497c-0.081-0.063-0.198-0.047-0.26,0.034
				c-0.063,0.081-0.047,0.198,0.034,0.26C173.121,141.439,174.724,142.644,177.097,142.156z"/>
			<path style="fill:#263238;" d="M169.542,133.917c0.127-0.026,0.236-0.118,0.278-0.25c0.506-1.574,1.819-1.95,1.832-1.954
				c0.197-0.054,0.314-0.258,0.26-0.455s-0.259-0.313-0.455-0.26c-0.07,0.019-1.716,0.489-2.343,2.442
				c-0.063,0.195,0.045,0.404,0.24,0.466C169.417,133.928,169.481,133.93,169.542,133.917z"/>
			<path style="fill:#263238;" d="M181.205,129.672c0.069-0.014,0.135-0.048,0.188-0.102c0.144-0.145,0.143-0.38-0.002-0.525
				c-1.458-1.447-3.128-1.095-3.205-1.089c-0.2,0.043-0.327,0.24-0.285,0.441c0.043,0.199,0.238,0.326,0.437,0.285
				c0.069-0.017,1.359-0.272,2.529,0.889C180.96,129.663,181.088,129.696,181.205,129.672z"/>
		</g>
		<g>
			<path style="fill:#FF8B7B;" d="M160.913,175.468l0.627,3.406c0.219,1.163,0.454,2.328,0.706,3.487
				c0.51,2.319,1.01,4.64,1.605,6.925c1.137,4.583,2.498,9.074,4.188,13.266c0.195,0.539,0.438,1.03,0.659,1.543l0.57,1.285
				c0.108,0.308,0.527,0.884,1.138,1.467c1.25,1.178,3.116,2.354,5.071,3.412c3.964,2.098,8.522,3.929,12.956,5.57l-1.071,5.779
				c-5.266-0.325-10.299-1.165-15.479-2.882c-2.584-0.897-5.186-1.965-7.844-3.843c-1.324-0.952-2.695-2.144-3.883-3.951
				c-0.138-0.214-0.311-0.483-0.412-0.659l-0.246-0.448l-0.491-0.898c-0.322-0.599-0.671-1.198-0.951-1.803
				c-2.397-4.833-4.175-9.771-5.616-14.747c-0.708-2.493-1.368-4.989-1.888-7.513c-0.27-1.261-0.522-2.524-0.758-3.795
				c-0.247-1.289-0.436-2.505-0.626-3.915L160.913,175.468z"/>
			<path style="fill:#407BFF;" d="M147.517,172.55c-4.09,6.267,1.828,24.725,1.828,24.725l19.789-4.055
				c0,0-1.482-8.488-4.941-17.521C160.425,165.861,152.472,164.959,147.517,172.55z"/>
			<path style="fill:#FF8B7B;" d="M187.231,215.643l7.939-0.342l-3.775,9.258c0,0-6.823-1.21-6.586-4.896L187.231,215.643z"/>
			<polygon style="fill:#FF8B7B;" points="200.512,219.072 197.033,226.577 191.394,224.559 195.17,215.301 			"/>
			<path style="fill:#FF8B7B;" d="M231.459,179.962l2.402-5.743l-10.132-1.655c0,0-0.821,5.24,3.115,8.116L231.459,179.962z"/>
			<polygon style="fill:#FF8B7B;" points="230.624,165.075 222.654,168.371 223.729,172.564 233.861,174.219 			"/>
		</g>
	</g>
</g>
</svg>
